<?xml version="1.0" encoding="iso-8859-1"?>
<!-- Generator: Adobe Illustrator 18.1.1, SVG Export Plug-In . SVG Version: 6.00 Build 0)  -->
<svg version="1.1" id="Capa_1" xmlns="http://www.w3.org/2000/svg" xmlns:xlink="http://www.w3.org/1999/xlink" x="0px" y="0px"
	 viewBox="0 0 285.004 285.004" style="enable-background:new 0 0 285.004 285.004;" xml:space="preserve">
<g>
	<g>
		<path d="M155.137,213.685v3.798c0,3.587-2.901,6.494-6.488,6.494H124.93c-3.587,0-6.488-2.907-6.488-6.494v-23.732
			c0-3.587,2.901-6.488,6.488-6.488h22.977c-0.711-4.663-1.188-9.382-1.323-14.132h-21.653c-3.587,0-6.488-2.901-6.488-6.488
			v-23.731c0-3.584,2.901-6.491,6.488-6.491h23.719c1.107,0,2.103,0.35,3.012,0.838c2.152-6.352,4.961-12.491,8.585-18.236
			c0.885-1.398,2.035-2.554,3.34-3.488l-47.97-41.383c-2.425-2.097-6.043-2.097-8.474,0l-76.58,66.085
			c-1.423,1.234-2.246,3.024-2.246,4.914v95.519c0,3.588,2.895,6.488,6.488,6.488h143.798
			C168.855,239.266,160.771,227.471,155.137,213.685z M104.321,217.482c0,3.587-2.906,6.494-6.494,6.494H74.108
			c-3.587,0-6.487-2.907-6.487-6.494v-23.731c0-3.587,2.9-6.488,6.487-6.488h23.719c3.588,0,6.494,2.901,6.494,6.488
			C104.321,193.751,104.321,217.482,104.321,217.482z M104.321,166.643c0,3.587-2.906,6.488-6.494,6.488H74.108
			c-3.587,0-6.487-2.901-6.487-6.488v-23.731c0-3.584,2.9-6.491,6.487-6.491h23.719c3.588,0,6.494,2.907,6.494,6.491
			C104.321,142.912,104.321,166.643,104.321,166.643z"/>
		<path d="M172.658,113.101c0.971,0.099,1.936,0.272,2.882,0.606c4.156,1.444,7.156,4.849,8.22,8.937l2.715,2.338
			c1.893-6.782,4.41-13.251,7.459-19.259l-76.21-65.525c-3.648-3.136-9.054-3.136-12.69,0L3.397,127.588
			c-4.089,3.507-4.546,9.652-1.046,13.73c1.93,2.242,4.657,3.386,7.397,3.386c2.239,0,4.503-0.773,6.34-2.354l95.29-81.937
			L172.658,113.101z"/>
		<path d="M282.854,140.023c-1.243-0.442-2.555-0.668-3.915-0.668c-10.391,0-21.609,12.952-29.526,25.253
			c-1.132-9.401-5.108-19.217-9.735-30.628l-2.108-5.223c-6.798-17.005-1.349-36.045,5.374-47.184
			c0.668-1.113,0.612-2.521-0.148-3.572c-0.748-1.051-2.078-1.559-3.34-1.271c-25.098,5.641-45.854,39.258-47.116,73.12
			c-2.95-2.925-6.16-4.762-9.005-6.389c-6.296-3.593-10.094-5.758-8.888-17.175c0.154-1.497-0.736-2.907-2.158-3.405
			c-1.417-0.501-3,0.062-3.816,1.336c-24.355,38.615-9.289,99.406,20.175,118.332c1.386,0.884,3.173,0.605,4.225-0.625
			c0.612-0.718,0.804-2.195,0.649-3.13c-0.952-5.906-3.266-22.661-1.119-34.895c1.41,1.516,3.142,2.505,4.706,3.408
			c2.753,1.57,5.134,2.925,6.612,7.044c0.401,1.126,1.397,1.942,2.585,2.121c1.188,0.148,2.381-0.34,3.08-1.311
			c3.203-4.373,4.633-11.151,6.147-18.345c1.991-9.419,4.026-19.074,9.84-23.762c-2.338,6.958-3.067,15.412,0.137,23.446
			l1.243,3.068c3.68,9.129,6.352,15.709,4.817,21.968c-0.39,1.614,0.489,3.247,2.029,3.816c1.552,0.563,3.284-0.117,4.026-1.583
			c2.906-5.808,6.648-11.084,10.094-14.404c-1.386,4.607-1.893,9.981-2.419,15.518c-0.55,5.869-1.132,11.942-2.739,17.41
			c-0.39,1.312,0.086,2.722,1.188,3.531c0.575,0.421,1.249,0.638,1.923,0.638c0.631,0,1.262-0.192,1.813-0.557
			c4.787-3.235,8.962-7.392,12.407-12.352c10.007-14.441,11.794-33.479,13.39-50.258c1.479-15.722,2.882-30.565,10.688-37.846
			c0.829-0.772,1.2-1.92,0.965-3.03C284.703,141.319,283.917,140.41,282.854,140.023z"/>
	</g>
</g>
<g>
</g>
<g>
</g>
<g>
</g>
<g>
</g>
<g>
</g>
<g>
</g>
<g>
</g>
<g>
</g>
<g>
</g>
<g>
</g>
<g>
</g>
<g>
</g>
<g>
</g>
<g>
</g>
<g>
</g>
</svg>
