<svg id="_x33_0" enable-background="new 0 0 64 64" height="512" viewBox="0 0 64 64" width="512" xmlns="http://www.w3.org/2000/svg"><path d="m62 36v26h-60v-60h26v4h-22v52h52v-22z" fill="#aab2bd"/><path d="m62 2v16.88c0 .58-.24 1.12-.62 1.5s-.92.62-1.5.62c-.56 0-1.1-.22-1.5-.62l-3.88-3.88-16.5 16.5v-7h-7l16.5-16.5-3.88-3.88c-.4-.4-.62-.94-.62-1.5 0-1.17.95-2.12 2.12-2.12z" fill="#ff826e"/><path d="m10 26v28h28v-21-7z" fill="#d3a06c"/><path d="m18 26h12v8h-4-4-4z" fill="#fcd770"/><path d="m44.808 30.192h2v2h-2z" transform="matrix(.707 -.707 .707 .707 -8.64 41.527)"/><path d="m50.465 24.536h2v2h-2z" transform="matrix(.707 -.707 .707 .707 -2.983 43.87)"/><path d="m47.636 27.364h2v2h-2z" transform="matrix(.707 -.707 .707 .707 -5.809 42.708)"/><path d="m53.293 21.707h2v2h-2z" transform="matrix(.707 -.707 .707 .707 -.154 45.042)"/><path d="m40.293 8.707h2v2h-2z" transform="matrix(.707 -.707 .707 .707 5.231 32.042)"/><path d="m31.808 17.192h2v2h-2z" transform="matrix(.707 -.707 .707 .707 -3.255 28.527)"/><path d="m37.465 11.536h2v2h-2z" transform="matrix(.707 -.707 .707 .707 2.402 30.87)"/><path d="m34.636 14.364h2v2h-2z" transform="matrix(.707 -.707 .707 .707 -.427 29.698)"/><path d="m33 49h2v2h-2z"/><path d="m29 49h2v2h-2z"/><path d="m25 49h2v2h-2z"/><path d="m25 45h10v2h-10z"/><path d="m57 57h-50v-50h22v-6h-28v62h62v-28h-6zm2-20h2v24h-58v-58h24v2h-22v54h54z"/><path d="m45.121 1c-1.721 0-3.121 1.4-3.121 3.121 0 .834.324 1.618.914 2.207l3.172 3.172-15.5 15.5h-21.586v30h30v-21.586l15.5-15.5 3.172 3.172c.581.581 1.385.914 2.207.914 1.721 0 3.121-1.4 3.121-3.121v-17.879zm-20.121 28v4h-2v-4h-2v4h-2v-6h10v6h-2v-4zm12 24h-26v-26h6v8h14v-8h6zm24-34.121c0 .618-.503 1.121-1.121 1.121-.295 0-.584-.12-.793-.328l-4.586-4.586-15.5 15.5v-5.586h-5.586l15.5-15.5-4.586-4.586c-.212-.212-.328-.493-.328-.793 0-.618.503-1.121 1.121-1.121h15.879z"/></svg>