<?xml version="1.0" encoding="utf-8"?>
<!-- Generator: Adobe Illustrator 23.0.2, SVG Export Plug-In . SVG Version: 6.00 Build 0)  -->
<svg version="1.1" id="Layer_1" xmlns="http://www.w3.org/2000/svg" xmlns:xlink="http://www.w3.org/1999/xlink" x="0px" y="0px"
	 viewBox="0 0 250 250" style="enable-background:new 0 0 250 250;" xml:space="preserve">
<style type="text/css">
	.st0{display:none;}
	.st1{display:inline;fill:#6C9DD3;}
	.st2{display:inline;fill:#FFCE04;}
	.st3{display:inline;fill:#F47859;}
	.st4{display:inline;fill:#9ECC3B;}
	.st5{display:inline;fill:none;}
	.st6{display:inline;fill:#7BD0E2;}
	.st7{display:inline;fill:#B6D433;}
	.st8{display:inline;fill:#010101;}
	.st9{display:inline;fill:#989898;}
	.st10{display:inline;fill:#BBB9BA;}
	.st11{display:inline;fill:#DF9363;}
	.st12{display:inline;fill:#CA5057;}
	.st13{display:inline;fill:#DC6068;}
	.st14{display:inline;fill:#5D88C6;}
	.st15{display:inline;fill:#709BD1;}
	.st16{display:inline;fill:#D9D8D8;}
	.st17{display:inline;}
	.st18{fill:#96CCE6;}
	.st19{display:inline;fill:#79D2F7;}
	.st20{display:inline;fill:#FCCE9E;}
	.st21{display:inline;fill:#FFFFFF;}
	.st22{fill:#010101;}
	.st23{fill:#AAB2BD;}
	.st24{fill:#F48270;}
	.st25{fill:#D3A16D;}
	.st26{fill:#FCD770;}
	.st27{display:inline;fill:#E39E25;}
	.st28{display:inline;fill:#EBEBEB;}
	.st29{display:inline;fill:#14BDE0;}
	.st30{display:inline;fill:#CCDEF2;}
</style>
<g id="Protection-3" class="st0">
	<path class="st1" d="M223.18,88.39c0,30.54-22.96,56.19-53.31,59.57c-2.2,0.24-4.41,0.36-6.63,0.37
		c-33.1,0-59.94-26.83-59.94-59.94s26.83-59.94,59.94-59.94S223.18,55.29,223.18,88.39L223.18,88.39z"/>
	<path class="st2" d="M196.54,58.43v23.21c0,10.77-4.01,21.16-11.25,29.14l-22.04,24.24l-22.04-24.24
		c-7.24-7.98-11.25-18.36-11.25-29.14V58.43l33.3-9.99L196.54,58.43z"/>
	<path class="st3" d="M169.91,148.33v46.62c-0.01,3.67-2.99,6.65-6.66,6.66H36.71c-3.67-0.01-6.65-2.99-6.66-6.66v-46.62
		c0.01-3.67,2.99-6.65,6.66-6.66h99.1c8.48,4.39,17.89,6.68,27.44,6.66c2.21,0,4.43-0.13,6.63-0.37
		C169.9,148.08,169.91,148.21,169.91,148.33z"/>
	<path class="st4" d="M156.59,201.61v9.99c0,5.52-4.47,9.99-9.99,9.99s-9.99-4.47-9.99-9.99l0,0v-9.99H156.59z"/>
	<circle class="st2" cx="136.61" cy="171.64" r="13.32"/>
	<path class="st5" d="M135.81,141.67H80c0-7.36-5.96-13.32-13.32-13.32s-13.32,5.96-13.32,13.32h-9.99l1.66-13.32l1.66-13.32
		l2.6-20.81c0.43-3.33,3.27-5.83,6.63-5.83h47.38C103.3,110.84,115.85,131.41,135.81,141.67L135.81,141.67z"/>
	<path class="st6" d="M80,141.67H53.36c0-7.36,5.96-13.32,13.32-13.32S80,134.32,80,141.67z"/>
	<circle class="st2" cx="63.35" cy="171.64" r="13.32"/>
	<path class="st4" d="M63.35,201.61v9.99c0,5.52-4.47,9.99-9.99,9.99s-9.99-4.47-9.99-9.99l0,0v-9.99H63.35z"/>
	<path class="st7" d="M46.7,115.03l-1.66,13.32h-8.32c-3.67-0.01-6.65-2.99-6.66-6.66c0.03-3.67,2.99-6.63,6.66-6.66H46.7z"/>
	<path class="st8" d="M63.35,154.99c-9.2,0-16.65,7.45-16.65,16.65c0,9.2,7.45,16.65,16.65,16.65S80,180.83,80,171.64
		C79.99,162.45,72.54,155,63.35,154.99z M63.35,181.63c-5.52,0-9.99-4.47-9.99-9.99c0-5.52,4.47-9.99,9.99-9.99s9.99,4.47,9.99,9.99
		C73.34,177.16,68.87,181.63,63.35,181.63z"/>
	<path class="st8" d="M136.61,154.99c-9.2,0-16.65,7.45-16.65,16.65c0,9.2,7.45,16.65,16.65,16.65s16.65-7.45,16.65-16.65
		C153.25,162.45,145.8,155,136.61,154.99z M136.61,181.63c-5.52,0-9.99-4.47-9.99-9.99c0-5.52,4.47-9.99,9.99-9.99
		s9.99,4.47,9.99,9.99C146.6,177.16,142.12,181.63,136.61,181.63z"/>
	<path class="st8" d="M226.51,88.39c0.05-34.92-28.22-63.26-63.14-63.31c-33.69-0.05-61.5,26.33-63.23,59.98H55.91
		c-5.04,0-9.29,3.75-9.91,8.75l-2.24,17.89h-7.05c-5.5,0.03-9.96,4.49-9.99,9.99c0,5.52,4.47,9.99,9.99,9.99h4.55l-0.83,6.66h-3.72
		c-5.52,0-9.99,4.47-9.99,9.99v46.62c0,5.52,4.47,9.99,9.99,9.99h3.33v6.66c0,7.36,5.97,13.32,13.32,13.31
		c7.35,0,13.31-5.96,13.31-13.31v-6.66h66.6v6.66c0,7.36,5.96,13.32,13.32,13.32s13.32-5.96,13.32-13.32v-6.66h3.33
		c5.52,0,9.99-4.47,9.99-9.99v-44.16C203.89,145.87,226.46,119.44,226.51,88.39L226.51,88.39z M36.71,125.02
		c-1.84,0-3.33-1.49-3.33-3.33c0-0.9,0.37-1.75,1.02-2.37c0.61-0.62,1.44-0.97,2.31-0.96h6.22l-0.83,6.66H36.71z M52.61,94.64
		c0.21-1.67,1.63-2.92,3.31-2.92h44.24c0.96,18.35,9.87,35.37,24.41,46.62H83c-1.83-9.01-10.62-14.83-19.63-13
		c-6.55,1.33-11.67,6.45-13,13h-3.22L52.61,94.64z M76.06,138.34H57.3c1.8-5.18,7.46-7.91,12.64-6.11
		C72.81,133.23,75.06,135.48,76.06,138.34z M60.02,211.6c0,3.68-2.98,6.66-6.66,6.66s-6.66-2.98-6.66-6.66v-6.66h13.32V211.6z
		 M153.26,211.6c0,3.68-2.98,6.66-6.66,6.66c-3.68,0-6.66-2.98-6.66-6.66v-6.66h13.32V211.6z M166.58,194.95
		c0,1.84-1.49,3.33-3.33,3.33H36.71c-1.84,0-3.33-1.49-3.33-3.33v-46.62c0-1.84,1.49-3.33,3.33-3.33h98.45
		c8.72,4.37,18.33,6.65,28.08,6.66c1.13,0,2.22-0.11,3.33-0.17V194.95z M163.25,145c-31.26,0-56.61-25.34-56.61-56.61
		s25.34-56.61,56.61-56.61s56.61,25.34,56.61,56.61C219.82,119.64,194.49,144.97,163.25,145z"/>
	<path class="st8" d="M197.5,55.24l-33.3-9.99c-0.62-0.19-1.29-0.19-1.91,0l-33.3,9.99c-1.41,0.42-2.37,1.72-2.37,3.19v23.22
		c-0.01,11.6,4.31,22.78,12.12,31.36l22.04,24.24c1.24,1.36,3.34,1.46,4.7,0.22c0.08-0.07,0.15-0.15,0.22-0.22l22.04-24.24
		c7.81-8.58,12.13-19.76,12.12-31.36V58.43C199.87,56.95,198.91,55.66,197.5,55.24L197.5,55.24z M193.21,81.65
		c0.01,9.94-3.7,19.53-10.39,26.88l-19.58,21.53l-19.58-21.53c-6.69-7.35-10.4-16.94-10.39-26.88V60.9l29.97-8.99l29.97,8.99V81.65z
		"/>
	<path class="st8" d="M149.52,86.61l-4.71,4.71l9.42,9.42c1.3,1.3,3.41,1.3,4.71,0l28.25-28.25l-4.71-4.71l-25.9,25.9L149.52,86.61z
		"/>
	<path class="st8" d="M86.66,161.65h6.66v6.66h-6.66V161.65z"/>
	<path class="st8" d="M106.64,161.65h6.66v6.66h-6.66V161.65z"/>
	<path class="st8" d="M86.66,174.97h6.66v6.66h-6.66V174.97z"/>
	<path class="st8" d="M106.64,174.97h6.66v6.66h-6.66V174.97z"/>
</g>
<g class="st0">
	<path class="st9" d="M124.78,105.97c0.01-0.19,0.06-0.36,0.06-0.55c0-6.41-3.9-11.92-9.46-14.27c2.05-2.99,3.26-6.61,3.26-10.51
		c0-4.44-1.56-8.52-4.17-11.72c4.45-3.97,7.26-9.73,7.26-16.16c0-11.97-9.7-21.68-21.68-21.68s-21.68,9.7-21.68,21.68
		c0,1.15,0.11,2.28,0.29,3.38c-4.81,0.88-8.79,4-10.94,8.23c-2.76-6.8-9.42-11.6-17.22-11.6c-10.26,0-18.58,8.32-18.58,18.58
		s8.32,18.58,18.58,18.58c7.79,0,14.46-4.8,17.22-11.61c2.56,5.03,7.72,8.51,13.75,8.51c0.36,0,0.69-0.08,1.04-0.11
		c2.03,5.86,6.9,10.37,12.97,11.9c-1.01,2.06-1.63,4.34-1.63,6.78c0,8.55,6.93,15.48,15.48,15.48c1.69,0,3.29-0.34,4.82-0.84
		c1.68,2.38,4.44,3.94,7.57,3.94c5.13,0,9.29-4.16,9.29-9.29C131.03,110.65,128.41,107.23,124.78,105.97z"/>
	<path class="st10" d="M115.49,105.97c0.01-0.19,0.06-0.36,0.06-0.55c0-6.41-3.9-11.92-9.46-14.27c2.05-2.99,3.26-6.61,3.26-10.51
		c0-4.44-1.56-8.52-4.17-11.72c4.45-3.97,7.26-9.73,7.26-16.16c0-10.38-7.3-19.04-17.03-21.17c-9.74,2.13-17.03,10.79-17.03,21.17
		c0,1.15,0.11,2.28,0.29,3.38c-4.81,0.88-8.79,4-10.94,8.23c-0.91-2.25-2.28-4.25-3.94-5.95c-2.25,1.48-4.11,3.52-5.35,5.95
		c-2.2-5.41-6.88-9.51-12.63-10.98c-7.98,2.08-13.88,9.32-13.88,17.96c0,8.63,5.9,15.87,13.88,17.96
		c5.74-1.47,10.43-5.57,12.63-10.98c1.23,2.43,3.08,4.48,5.34,5.97c1.67-1.71,3.04-3.71,3.95-5.97c2.56,5.03,7.72,8.51,13.75,8.51
		c0.36,0,0.69-0.08,1.04-0.11c2.03,5.86,6.9,10.37,12.97,11.9c-1.01,2.06-1.63,4.34-1.63,6.78c0,6.91,4.57,12.7,10.82,14.69
		c0.06-0.02,0.12-0.03,0.19-0.05c0.04,0.05,0.09,0.09,0.13,0.15c1.39,0.41,2.82,0.69,4.34,0.69c1.69,0,3.29-0.34,4.82-0.84
		c0.77,1.08,1.78,1.97,2.93,2.64c2.76-1.61,4.64-4.57,4.64-8C121.74,110.65,119.12,107.23,115.49,105.97z"/>
	<path class="st11" d="M78.39,117.81c0,6.84-5.55,12.39-12.39,12.39s-12.39-5.55-12.39-12.39c0-6.84,5.55-12.39,12.39-12.39
		S78.39,110.97,78.39,117.81z"/>
	<path class="st12" d="M90.77,142.58c0,3.42-2.77,6.19-6.19,6.19c-3.42,0-6.19-2.77-6.19-6.19s2.77-6.19,6.19-6.19
		C88,136.39,90.77,139.16,90.77,142.58z"/>
	<path class="st12" d="M72.67,177.6l5.72-7.15l9.29,21.68c0,13.68-11.09,24.77-24.77,24.77h-6.19c-13.68,0-24.77-11.09-24.77-24.77
		l9.29-21.68l5.72,7.15l12.86-25.73L72.67,177.6z"/>
	<path class="st11" d="M72.67,189.99l-12.86-25.73l-12.86,25.73l-5.72-7.15l-7.7,17.96c3.52,9.4,12.56,16.1,23.18,16.1h6.19
		c10.63,0,19.66-6.7,23.18-16.1l-7.7-17.96L72.67,189.99z"/>
	<path class="st12" d="M66,198.32c0,3.42-2.77,6.19-6.19,6.19c-3.42,0-6.19-2.77-6.19-6.19s2.77-6.19,6.19-6.19
		C63.23,192.13,66,194.9,66,198.32z"/>
	<path class="st12" d="M143.42,62.06h74.32V216.9h-74.32V62.06z"/>
	<path class="st13" d="M143.42,62.06h61.94V216.9h-61.94V62.06z"/>
	<path class="st14" d="M106.26,136.39h68.13v80.52h-68.13V136.39z"/>
	<path class="st15" d="M106.26,136.39h52.65v80.52h-52.65V136.39z"/>
	<path class="st16" d="M174.39,161.16h-49.55v-12.39h49.55"/>
	<path class="st16" d="M174.39,185.94h-49.55v-12.39h49.55"/>
	<g class="st17">
		<path class="st18" d="M155.81,74.45h18.58v12.39h-18.58V74.45z"/>
		<path class="st18" d="M186.77,74.45h18.58v12.39h-18.58V74.45z"/>
		<path class="st18" d="M155.81,99.23h18.58v12.39h-18.58V99.23z"/>
		<path class="st18" d="M186.77,99.23h18.58v12.39h-18.58V99.23z"/>
		<path class="st18" d="M186.77,124h18.58v12.39h-18.58V124z"/>
		<path class="st18" d="M186.77,148.77h18.58v12.39h-18.58V148.77z"/>
		<path class="st18" d="M186.77,173.55h18.58v12.39h-18.58V173.55z"/>
		<path class="st18" d="M174.39,136.39V124h-18.58v12.39"/>
	</g>
	<path class="st8" d="M217.74,220h-43.35v-6.19h40.26V65.16h-68.13v71.23h-6.19V62.06c0-1.71,1.39-3.1,3.1-3.1h74.32
		c1.71,0,3.1,1.39,3.1,3.1V216.9C220.84,218.62,219.45,220,217.74,220z"/>
	<path class="st8" d="M174.39,220h-68.13c-1.71,0-3.1-1.38-3.1-3.1v-80.52c0-1.71,1.39-3.1,3.1-3.1h68.13c1.71,0,3.1,1.38,3.1,3.1
		v80.52C177.48,218.62,176.1,220,174.39,220z M109.35,213.81h61.94v-74.32h-61.94V213.81z"/>
	<path class="st8" d="M174.39,164.26h-49.55c-1.71,0-3.1-1.38-3.1-3.1v-12.39c0-1.71,1.39-3.1,3.1-3.1h49.55v6.19h-46.45v6.19h46.45
		V164.26z"/>
	<path class="st8" d="M174.39,189.03h-49.55c-1.71,0-3.1-1.38-3.1-3.1v-12.39c0-1.71,1.39-3.1,3.1-3.1h49.55v6.19h-46.45v6.19h46.45
		V189.03z"/>
	<path class="st8" d="M174.39,89.94h-18.58c-1.71,0-3.1-1.39-3.1-3.1V74.45c0-1.71,1.39-3.1,3.1-3.1h18.58c1.71,0,3.1,1.39,3.1,3.1
		v12.39C177.48,88.55,176.1,89.94,174.39,89.94z M158.9,83.74h12.39v-6.19H158.9V83.74z"/>
	<path class="st8" d="M205.35,89.94h-18.58c-1.71,0-3.1-1.39-3.1-3.1V74.45c0-1.71,1.39-3.1,3.1-3.1h18.58c1.71,0,3.1,1.39,3.1,3.1
		v12.39C208.45,88.55,207.06,89.94,205.35,89.94z M189.87,83.74h12.39v-6.19h-12.39V83.74z"/>
	<path class="st8" d="M174.39,114.71h-18.58c-1.71,0-3.1-1.39-3.1-3.1V99.23c0-1.71,1.39-3.1,3.1-3.1h18.58c1.71,0,3.1,1.39,3.1,3.1
		v12.39C177.48,113.32,176.1,114.71,174.39,114.71z M158.9,108.52h12.39v-6.19H158.9V108.52z"/>
	<path class="st8" d="M205.35,114.71h-18.58c-1.71,0-3.1-1.39-3.1-3.1V99.23c0-1.71,1.39-3.1,3.1-3.1h18.58c1.71,0,3.1,1.39,3.1,3.1
		v12.39C208.45,113.32,207.06,114.71,205.35,114.71z M189.87,108.52h12.39v-6.19h-12.39V108.52z"/>
	<path class="st8" d="M205.35,139.48h-18.58c-1.71,0-3.1-1.38-3.1-3.1V124c0-1.71,1.39-3.1,3.1-3.1h18.58c1.71,0,3.1,1.39,3.1,3.1
		v12.39C208.45,138.1,207.06,139.48,205.35,139.48z M189.87,133.29h12.39v-6.19h-12.39V133.29z"/>
	<path class="st8" d="M205.35,164.26h-18.58c-1.71,0-3.1-1.38-3.1-3.1v-12.39c0-1.71,1.39-3.1,3.1-3.1h18.58
		c1.71,0,3.1,1.38,3.1,3.1v12.39C208.45,162.87,207.06,164.26,205.35,164.26z M189.87,158.06h12.39v-6.19h-12.39V158.06z"/>
	<path class="st8" d="M205.35,189.03h-18.58c-1.71,0-3.1-1.38-3.1-3.1v-12.39c0-1.71,1.39-3.1,3.1-3.1h18.58
		c1.71,0,3.1,1.38,3.1,3.1v12.39C208.45,187.65,207.06,189.03,205.35,189.03z M189.87,182.84h12.39v-6.19h-12.39V182.84z"/>
	<path class="st8" d="M177.48,136.39h-6.19v-9.29H158.9v9.29h-6.19V124c0-1.71,1.39-3.1,3.1-3.1h18.58c1.71,0,3.1,1.39,3.1,3.1
		V136.39z"/>
	<path class="st8" d="M121.74,127.1c-3.24,0-6.34-1.29-8.63-3.53c-1.29,0.29-2.53,0.43-3.75,0.43c-10.25,0-18.58-8.33-18.58-18.58
		c0-1.65,0.23-3.29,0.69-4.89c-4.83-2.08-8.73-5.84-10.98-10.62c-4.79-0.26-9.21-2.36-12.44-5.79c-4.01,5.54-10.46,8.92-17.53,8.92
		c-11.95,0-21.68-9.72-21.68-21.68s9.72-21.68,21.68-21.68c7.08,0,13.53,3.38,17.54,8.93c2.01-2.13,4.51-3.77,7.26-4.75
		c-0.02-0.37-0.03-0.73-0.03-1.08C75.29,39.11,86.4,28,100.06,28s24.77,11.11,24.77,24.77c0,6.1-2.28,11.98-6.32,16.5
		c2.09,3.4,3.23,7.35,3.23,11.37c0,3.24-0.72,6.41-2.1,9.3c4.73,3.14,7.8,8.31,8.23,14.05c3.81,2.18,6.25,6.25,6.25,10.72
		C134.13,121.54,128.57,127.1,121.74,127.1z M114.17,116.97c0.98,0,1.94,0.47,2.53,1.31c1.17,1.65,3.05,2.63,5.04,2.63
		c3.42,0,6.19-2.78,6.19-6.19c0-2.61-1.68-4.95-4.17-5.81c-1.29-0.45-2.13-1.68-2.07-3.05c0-0.11,0.04-0.47,0.06-0.57
		c0-4.85-2.97-9.33-7.57-11.27c-0.86-0.36-1.51-1.09-1.77-1.99c-0.26-0.89-0.1-1.85,0.42-2.62c1.77-2.59,2.72-5.61,2.72-8.75
		c0-3.6-1.2-6.97-3.47-9.76c-1.04-1.29-0.9-3.16,0.34-4.26c3.96-3.53,6.23-8.58,6.23-13.85c0-10.25-8.33-18.58-18.58-18.58
		s-18.58,8.33-18.58,18.58c0,0.88,0.08,1.8,0.25,2.9c0.26,1.66-0.85,3.22-2.5,3.52c-3.78,0.7-6.97,3.1-8.74,6.58
		c-0.55,1.08-1.71,1.71-2.89,1.69c-1.21-0.05-2.28-0.81-2.74-1.93c-2.38-5.88-8.02-9.67-14.35-9.67c-8.54,0-15.48,6.95-15.48,15.48
		s6.95,15.48,15.48,15.48c6.33,0,11.96-3.8,14.34-9.67c0.46-1.12,1.53-1.88,2.74-1.93c1.19-0.06,2.34,0.61,2.89,1.69
		c2.14,4.21,6.35,6.82,10.99,6.82c0.4-0.06,0.62-0.08,0.84-0.1c1.39-0.08,2.67,0.76,3.12,2.08c1.71,4.93,5.75,8.64,10.81,9.92
		c0.9,0.23,1.66,0.86,2.05,1.7c0.39,0.85,0.38,1.83-0.03,2.66c-0.87,1.77-1.31,3.59-1.31,5.42c0,6.83,5.56,12.39,12.39,12.39
		c1.19,0,2.45-0.22,3.85-0.68C113.52,117.02,113.85,116.97,114.17,116.97z"/>
	<path class="st8" d="M62.9,220h-6.19c-15.37,0-27.87-12.5-27.87-27.87c0-0.42,0.08-0.84,0.25-1.22l9.29-21.68
		c0.43-1,1.35-1.7,2.43-1.85c1.08-0.14,2.15,0.29,2.83,1.13L56.03,184l-4.84,3.87l-9.16-11.45l-7,16.32
		c0.33,11.67,9.93,21.06,21.67,21.06h6.19c11.75,0,21.34-9.39,21.67-21.06l-7-16.32l-9.16,11.45L63.58,184l12.39-15.48
		c0.68-0.85,1.76-1.28,2.83-1.13c1.08,0.15,2,0.85,2.43,1.85l9.29,21.68c0.17,0.38,0.25,0.8,0.25,1.22
		C90.77,207.5,78.27,220,62.9,220z"/>
	<path class="st8" d="M69.42,178.03l-9.62-19.23l-9.62,19.23l-5.54-2.77l12.39-24.77c1.05-2.1,4.49-2.1,5.54,0l12.39,24.77
		L69.42,178.03z"/>
	<path class="st8" d="M59.81,207.61c-5.12,0-9.29-4.17-9.29-9.29c0-5.12,4.17-9.29,9.29-9.29s9.29,4.17,9.29,9.29
		C69.1,203.44,64.93,207.61,59.81,207.61z M59.81,195.23c-1.71,0-3.1,1.39-3.1,3.1c0,1.71,1.39,3.1,3.1,3.1c1.71,0,3.1-1.39,3.1-3.1
		C62.9,196.61,61.51,195.23,59.81,195.23z"/>
	<path class="st8" d="M84.58,151.87c-5.12,0-9.29-4.17-9.29-9.29s4.17-9.29,9.29-9.29c5.12,0,9.29,4.17,9.29,9.29
		S89.7,151.87,84.58,151.87z M84.58,139.48c-1.71,0-3.1,1.39-3.1,3.1c0,1.71,1.39,3.1,3.1,3.1c1.71,0,3.1-1.39,3.1-3.1
		C87.68,140.87,86.29,139.48,84.58,139.48z"/>
	<path class="st8" d="M66,133.29c-8.54,0-15.48-6.95-15.48-15.48s6.95-15.48,15.48-15.48s15.48,6.95,15.48,15.48
		S74.54,133.29,66,133.29z M66,108.52c-5.12,0-9.29,4.17-9.29,9.29c0,5.12,4.17,9.29,9.29,9.29s9.29-4.17,9.29-9.29
		C75.29,112.68,71.12,108.52,66,108.52z"/>
</g>
<g id="XMLID_1577_" class="st0">
	<polygon id="XMLID_3258_" class="st19" points="88.38,204.14 70.26,222.27 24.9,222.27 24.9,176.91 43.02,158.79 	"/>
	<path id="XMLID_3257_" class="st20" d="M216.46,162.43c-3.81-4.14-10.08-4.88-14.76-1.75c-10,6.71-27.06,18.05-37.96,25.29
		c-6.65,4.41-14.44,6.76-22.42,6.76l-0.38-0.11c3.48-0.15,6.82-1.95,8.81-5.09c3.11-4.91,1.83-11.4-2.91-14.77l-31.86-22.63
		c-13.05-9.27-30.53-9.32-43.63-0.12l-21.79,15.3l36.3,36.3l42.49,15.1c13.77,4.89,29.05,2.81,41.01-5.59l45.29-31.82
		C220.23,175.39,221.08,167.44,216.46,162.43z"/>
	<path id="XMLID_2028_" class="st21" d="M176.57,105.75c0.37-1.11,0.67-1.91,1.02-2.26c4.5-4.5,7.01-10.63,6.96-17l-0.02-1.75l0,0
		c1.86-3.25,2.76-7.01,2.54-10.82l-0.27-4.57L185.14,71c4.62-4.62,6.01-11.57,3.53-17.61l-1.61-3.91
		c2.43-4.88,3.13-10.53,1.82-15.98l-1.39-5.78l-11.45,11.45c-5.68,5.68-12.46,10.12-19.93,13.06
		c-11.23,4.41-20.81,12.19-27.44,22.27l-3.01,4.58l-0.17,1.76l-2.69-12.48c-1.64-7.59-8.35-13.02-16.12-13.02
		c-10,0-17.7,8.83-16.34,18.74l3.58,26c2.78,20.24,20.08,35.33,40.52,35.33c6.66,0,13.04-1.62,18.71-4.54l-0.02,0.04
		c0,0,19.06-7.27,37.61,1.22c10.23-15.59,12.19-34.94,12.19-34.94L176.57,105.75z M156.54,128.91c-1.04,0.67-2.1,1.28-3.19,1.85
		C153.79,130.52,154.96,129.87,156.54,128.91z"/>
	<g id="XMLID_327_" class="st17">
		<path id="XMLID_338_" class="st22" d="M219.36,159.75c-5.17-5.62-13.53-6.6-19.87-2.35c-9.72,6.52-26,17.35-37.95,25.28
			c-2.17,1.44-4.48,2.64-6.87,3.58c1.95-6.05-0.14-12.87-5.55-16.71l-31.86-22.63c-14.39-10.22-33.76-10.27-48.2-0.13L50,160.17
			l-4.18-4.18c-1.54-1.54-4.05-1.54-5.59,0L22.1,174.12c-1.54,1.54-1.54,4.05,0,5.59c1.54,1.54,4.05,1.54,5.59,0l15.33-15.33
			l39.77,39.77l-15.33,15.33c-1.54,1.54-1.54,4.05,0,5.59c0.77,0.77,1.78,1.16,2.8,1.16s2.02-0.39,2.8-1.16l17.56-17.56l36.4,12.94
			c5.33,1.89,10.87,2.82,16.39,2.82c9.97,0,19.86-3.03,28.21-8.9l2.82-1.98c1.79-1.26,2.22-3.72,0.96-5.51
			c-1.26-1.79-3.72-2.22-5.51-0.96l-2.82,1.98c-10.89,7.65-24.87,9.56-37.41,5.1l-41.65-14.8l-32.34-32.34l17.94-12.6
			c11.71-8.22,27.41-8.18,39.07,0.1l31.86,22.63c3.03,2.15,3.84,6.29,1.86,9.43c-1.94,3.07-5.85,4.15-9.09,2.5
			c-11.24-5.73-29.17-14.85-29.17-14.85l0,0.01c-0.54-0.27-1.14-0.43-1.79-0.43c-2.18,0-3.95,1.77-3.95,3.95
			c0,1.54,0.88,2.87,2.16,3.52l0,0c0,0,17.93,9.12,29.16,14.84c2.18,1.11,4.49,1.64,6.78,1.64c0.26,0.06,0.54,0.09,0.82,0.09
			c8.78,0,17.29-2.57,24.61-7.42c11.95-7.93,28.24-18.77,37.98-25.3c3.08-2.07,7.13-1.58,9.64,1.14c1.45,1.58,2.13,3.62,1.9,5.75
			c-0.23,2.13-1.32,3.98-3.08,5.22l-16.57,11.64c-1.79,1.26-2.22,3.72-0.96,5.51c1.26,1.79,3.72,2.22,5.51,0.96l16.57-11.64
			c3.59-2.52,5.92-6.48,6.39-10.84C223.78,167.33,222.34,162.98,219.36,159.75z"/>
		<path id="XMLID_432_" class="st22" d="M106.8,77.69c1.04,0,2.06-0.42,2.8-1.16c0.74-0.74,1.16-1.76,1.16-2.8s-0.42-2.06-1.16-2.8
			c-0.74-0.74-1.75-1.16-2.8-1.16c-1.04,0-2.06,0.42-2.8,1.16c-0.74,0.74-1.16,1.76-1.16,2.8s0.42,2.06,1.16,2.8
			C104.74,77.27,105.76,77.69,106.8,77.69z"/>
		<path id="XMLID_939_" class="st22" d="M80.23,80.57h7.01L90,100.62c1.48,10.74,6.79,20.57,14.96,27.7
			c8.17,7.12,18.64,11.05,29.48,11.05c7.04,0,13.89-1.64,20.1-4.76c0.37-0.14,17.9-6.5,34.55,1.12c0.53,0.24,1.09,0.36,1.64,0.36
			c1.3,0,2.56-0.64,3.31-1.78c10.64-16.22,12.74-35.88,12.82-36.71c0.13-1.33-0.41-2.64-1.45-3.48c-1.04-0.84-2.43-1.1-3.7-0.68
			l-15.9,5.16c1.79-3.77,2.74-7.93,2.71-12.14l-0.01-0.74c1.88-3.68,2.77-7.83,2.52-12.03l-0.21-3.51
			c3.37-5.42,4.01-12.2,1.51-18.28l-0.97-2.35c2.2-5.3,2.74-11.26,1.37-16.96l-1.39-5.78c-0.33-1.39-1.4-2.49-2.77-2.88
			c-1.38-0.39-2.86,0-3.87,1.01l-11.45,11.45c-5.32,5.32-11.58,9.42-18.58,12.17c-11.03,4.34-20.45,11.59-27.43,21.09l-0.59-2.21
			c-2.05-9.3-10.43-16.04-19.96-16.04c-5.91,0-11.53,2.55-15.41,7.01c-2.5,2.86-4.11,6.33-4.74,10l-8.28,4.8
			c-1.55,0.9-2.3,2.72-1.84,4.45C76.88,79.37,78.44,80.57,80.23,80.57z M189.13,127.19c-7.47-2.77-14.82-3.38-21-3.08
			c3.48-3.96,6.26-8.52,8.18-13.54l0.26-0.67l21.4-6.95C196.73,108.99,194.16,118.49,189.13,127.19z M97.23,63.6
			c2.38-2.73,5.82-4.3,9.45-4.3c5.87,0,11.02,4.16,12.25,9.9c0.01,0.06,0.03,0.12,0.04,0.19l2.86,10.72
			c0.4,1.51,1.65,2.64,3.19,2.89c1.54,0.25,3.08-0.43,3.94-1.73l3.01-4.58c6.21-9.45,15.06-16.63,25.58-20.76
			c8.03-3.15,15.19-7.85,21.28-13.94l6.43-6.43c1.12,6.24-0.9,12.76-5.41,17.26l-5.06,5.06c-1.54,1.54-1.54,4.05,0,5.59
			c1.54,1.54,4.05,1.54,5.59,0l5.06-5.06c0.13-0.13,0.26-0.26,0.38-0.39c0.47,3.67-0.74,7.42-3.43,10.15l-2.39,2.39h0
			c-1.54,1.54-1.54,4.05,0,5.59c0.82,0.82,1.91,1.2,2.98,1.15c-0.26,1.82-0.85,3.58-1.72,5.19l-5.07,6
			c-1.37,1.62-1.22,4.03,0.34,5.46c0.64,0.59,1.43,0.93,2.24,1.02c-0.97,2.12-2.32,4.07-3.98,5.74c-0.94,0.94-1.98,1.79-3.09,2.52
			l-10.65,4.35c-1.98,0.81-2.96,3.05-2.21,5.05c0.75,2,2.97,3.04,4.99,2.34l1.75-0.6c-6.7,10.46-18.46,17.1-31.15,17.1
			c-18.36,0-34.1-13.72-36.6-31.91l-3.58-26C93.76,69.96,94.85,66.33,97.23,63.6z"/>
		<path id="XMLID_957_" class="st22" d="M185.03,195.95c-1.04,0-2.06,0.42-2.8,1.16c-0.74,0.74-1.16,1.76-1.16,2.8
			s0.42,2.06,1.16,2.79c0.74,0.74,1.76,1.16,2.8,1.16c1.04,0,2.06-0.42,2.8-1.16c0.74-0.74,1.16-1.75,1.16-2.79
			c0-1.04-0.42-2.06-1.16-2.8C187.08,196.37,186.07,195.95,185.03,195.95z"/>
	</g>
</g>
<g>
	<path class="st23" d="M188.56,134.45v55.08H61.44V62.42h55.08v8.47H69.92v110.17h110.17v-46.61H188.56z"/>
	<path class="st24" d="M188.56,62.42v35.76c0,1.23-0.51,2.37-1.31,3.18s-1.95,1.31-3.18,1.31c-1.19,0-2.33-0.47-3.18-1.31
		l-8.22-8.22l-34.96,34.96v-14.83h-14.83l34.96-34.96l-8.22-8.22c-0.85-0.85-1.31-1.99-1.31-3.18c0-2.48,2.01-4.49,4.49-4.49H188.56
		z"/>
	<path class="st25" d="M78.39,113.27v59.32h59.32V128.1v-14.83H78.39z"/>
	<path class="st26" d="M95.34,113.27h25.42v16.95h-8.47h-8.47h-8.47V113.27z"/>
	<path class="st22" d="M151.24,124.27l3-3l3,3l-3,3L151.24,124.27z"/>
	<path class="st22" d="M163.22,112.29l3-3l3,3l-3,3L163.22,112.29z"/>
	<path class="st22" d="M157.24,118.3l3-3l3,3l-3,3L157.24,118.3z"/>
	<path class="st22" d="M169.22,106.3l3-3l3,3l-3,3L169.22,106.3z"/>
	<path class="st22" d="M141.68,78.76l3-3l3,3l-3,3L141.68,78.76z"/>
	<path class="st22" d="M123.7,96.73l3-3l3,3l-3,3L123.7,96.73z"/>
	<path class="st22" d="M135.69,84.75l3-3l3,3l-3,3L135.69,84.75z"/>
	<path class="st22" d="M129.69,90.74l3-3l3,3l-3,3L129.69,90.74z"/>
	<path class="st22" d="M127.12,161.99h4.24v4.24h-4.24V161.99z"/>
	<path class="st22" d="M118.64,161.99h4.24v4.24h-4.24V161.99z"/>
	<path class="st22" d="M110.17,161.99h4.24v4.24h-4.24V161.99z"/>
	<path class="st22" d="M110.17,153.52h21.19v4.24h-21.19V153.52z"/>
	<path class="st22" d="M177.96,178.94H72.04V73.01h46.61V60.3H59.32v131.35h131.35v-59.32h-12.71V178.94z M182.2,136.57h4.24v50.85
		H63.56V64.54h50.85v4.24H67.8v114.4h114.4V136.57z"/>
	<path class="st22" d="M152.8,60.3c-3.65,0-6.61,2.97-6.61,6.61c0,1.77,0.69,3.43,1.94,4.68l6.72,6.72L122,111.15H76.27v63.56h63.56
		v-45.73l32.84-32.84l6.72,6.72c1.23,1.23,2.93,1.94,4.68,1.94c3.65,0,6.61-2.97,6.61-6.61V60.3L152.8,60.3z M110.17,119.62v8.47
		h-4.24v-8.47h-4.24v8.47h-4.24v-12.71h21.19v12.71h-4.24v-8.47H110.17z M135.59,170.47H80.51v-55.08h12.71v16.95h29.66v-16.95
		h12.71V170.47z M186.44,98.18c0,1.31-1.07,2.37-2.37,2.37c-0.62,0-1.24-0.25-1.68-0.69l-9.72-9.72l-32.84,32.84v-11.83H128
		l32.84-32.84l-9.72-9.72c-0.45-0.45-0.69-1.04-0.69-1.68c0-1.31,1.07-2.37,2.37-2.37h33.64L186.44,98.18z"/>
</g>
<g class="st0">
	<path class="st27" d="M177.07,108.14c0-29.74-24.12-53.85-53.86-53.85s-53.85,24.12-53.85,53.86c0,18.35,9.35,35.44,24.8,45.34
		c4.98,3.09,8.04,8.51,8.11,14.37v12.09c0,4.96,4.02,8.98,8.98,8.98h23.94c4.96,0,8.98-4.02,8.98-8.98v-11.84
		c0.08-6,3.2-11.55,8.29-14.73C167.81,143.47,177.08,126.43,177.07,108.14z"/>
	<path class="st28" d="M108.26,206.88c0,4.96,4.02,8.98,8.98,8.98l0,0h11.97c4.96,0,8.98-4.02,8.98-8.98l0,0v-17.95h-29.92V206.88z"
		/>
	<path class="st29" d="M195.6,76.49l9.41-7.05l-10.77-14.36l-9.41,7.05c-2.65,1.98-6.4,1.44-8.38-1.2
		c-0.95-1.27-1.36-2.86-1.13-4.43l1.66-11.64l-17.77-2.54l-1.66,11.64c-0.47,3.27-3.5,5.55-6.77,5.08
		c-1.57-0.22-2.99-1.06-3.94-2.33l-7.05-9.41l-14.36,10.77l7.05,9.41c1.98,2.65,1.44,6.4-1.2,8.38c-1.27,0.95-2.86,1.36-4.43,1.13
		l-11.64-1.66l-2.54,17.77l11.64,1.66c3.27,0.47,5.54,3.5,5.08,6.77c-0.22,1.57-1.06,2.99-2.33,3.94l-9.4,7.05l10.77,14.36l9.4-7.05
		c2.64-1.98,6.39-1.45,8.38,1.2c0.95,1.27,1.36,2.87,1.14,4.44l-1.68,11.63l17.77,2.54L165.1,128c0.47-3.27,3.5-5.54,6.77-5.08
		c1.57,0.22,2.99,1.06,3.94,2.33l7.05,9.4l14.36-10.77l-7.06-9.4c-1.98-2.64-1.45-6.39,1.2-8.38c1.27-0.95,2.87-1.36,4.44-1.14
		l11.64,1.66l2.54-17.77l-11.64-1.66c-3.27-0.47-5.54-3.5-5.08-6.77C193.49,78.86,194.33,77.45,195.6,76.49L195.6,76.49z
		 M161.32,111.92c-11.57,0-20.94-9.38-20.94-20.94s9.38-20.94,20.94-20.94s20.94,9.38,20.94,20.94S172.89,111.92,161.32,111.92z"/>
	<path class="st30" d="M94.16,153.49c-2.62-1.69-5.08-3.6-7.37-5.71c-2.08,7.98-10.23,12.77-18.22,10.69
		c-7.98-2.08-12.77-10.23-10.69-18.22c1.71-6.59,7.67-11.18,14.48-11.17c0.46,0,0.9,0.1,1.33,0.13c-2.84-6.67-4.3-13.83-4.3-21.08
		h-3.81l-2.07,9.83c-0.34,1.62-1.93,2.65-3.54,2.31c-0.39-0.08-0.76-0.24-1.08-0.46l-8.27-5.7l-8.98,8.98l5.68,8.27
		c0.94,1.36,0.59,3.22-0.77,4.16c-0.33,0.22-0.69,0.38-1.08,0.46l-9.82,2.07v11.97l9.83,2.07c1.62,0.34,2.65,1.93,2.31,3.54
		c-0.08,0.39-0.24,0.76-0.46,1.08l-5.7,8.27l8.98,8.98l8.27-5.68c1.36-0.94,3.22-0.6,4.16,0.76c0.23,0.33,0.38,0.7,0.47,1.09
		l2.06,9.82h11.97l2.06-9.83c0.34-1.62,1.92-2.65,3.54-2.32c0.39,0.08,0.76,0.24,1.09,0.47l8.27,5.7l9.39-9.39
		C100.92,159.99,98.12,155.99,94.16,153.49L94.16,153.49z"/>
	<path class="st8" d="M210.4,85.9l-11.64-1.66c-1.64-0.23-2.77-1.75-2.54-3.38c0.11-0.79,0.53-1.5,1.17-1.97l9.41-7.05
		c1.32-0.99,1.59-2.87,0.6-4.19l-10.77-14.36c-0.99-1.32-2.87-1.59-4.19-0.6c0,0,0,0,0,0l-9.4,7.05c-1.32,1-3.19,0.74-4.19-0.57
		c-0.49-0.64-0.69-1.45-0.58-2.24l1.66-11.64c0.23-1.64-0.9-3.15-2.54-3.39c0,0,0,0,0,0l-17.76-2.54c-1.64-0.23-3.15,0.9-3.39,2.54
		c0,0,0,0,0,0l-1.66,11.64c-0.23,1.64-1.75,2.77-3.38,2.54c-0.79-0.11-1.5-0.53-1.97-1.17l-7.05-9.41c-0.99-1.32-2.87-1.59-4.19-0.6
		c0,0,0,0,0,0l-8.99,6.75c-4.07-0.43-8.17-0.43-12.24,0c-26.64,3.04-47.53,24.29-50.12,50.97c-0.08,0.85-0.11,1.69-0.15,2.53h-0.9
		c-1.42,0-2.64,1-2.93,2.39l-2.07,9.83l-8.28-5.71c-1.19-0.82-2.79-0.67-3.81,0.35l-8.98,8.98c-1.02,1.02-1.17,2.62-0.35,3.81
		l5.68,8.27l-9.83,2.07c-1.38,0.3-2.35,1.52-2.35,2.93v11.97c0,1.42,0.99,2.64,2.38,2.93l9.83,2.07l-5.68,8.27
		c-0.82,1.19-0.67,2.79,0.35,3.81l8.98,8.98c1.02,1.02,2.63,1.17,3.81,0.35l8.27-5.7l2.07,9.83c0.28,1.39,1.51,2.39,2.93,2.39h11.97
		c1.42,0,2.64-0.99,2.93-2.38l2.07-9.83l8.27,5.68c1.19,0.82,2.79,0.67,3.81-0.35l4.65-4.66v8.53c0.01,4.26,2.29,8.18,5.98,10.3
		v16.62c0,6.61,5.36,11.97,11.97,11.97h11.97c6.61,0,11.97-5.36,11.97-11.97v-16.62c3.69-2.12,5.97-6.05,5.98-10.3v-11.84
		c0.08-4.98,2.69-9.58,6.92-12.21c2.48-1.61,4.84-3.41,7.04-5.39l-3.99-4.46c-1.97,1.77-4.08,3.38-6.3,4.82
		c-5.94,3.73-9.58,10.22-9.65,17.24v11.84c0,3.3-2.68,5.98-5.98,5.98h-23.94c-3.3,0-5.98-2.68-5.98-5.98v-12.09
		c-0.07-6.88-3.65-13.25-9.49-16.89c-23.71-14.9-30.86-46.2-15.96-69.92c9.24-14.71,25.38-23.67,42.76-23.73
		c-0.04,0.11-0.08,0.22-0.12,0.33c-0.11,0.79,0.09,1.58,0.57,2.22l7.05,9.4c0.74,0.96,0.81,2.28,0.18,3.32
		c-0.61,1.04-1.79,1.61-2.99,1.44l-11.64-1.66c-1.64-0.23-3.15,0.9-3.39,2.54c0,0,0,0,0,0l-2.54,17.77
		c-0.23,1.64,0.9,3.15,2.54,3.39c0,0,0,0,0,0l11.64,1.66c1.64,0.23,2.77,1.75,2.54,3.38c-0.11,0.79-0.53,1.5-1.17,1.97l-9.4,7.05
		c-1.32,0.99-1.59,2.87-0.6,4.19l10.77,14.36c0.99,1.32,2.87,1.59,4.19,0.6l0,0l9.41-7.05c1.32-0.99,3.2-0.72,4.19,0.6
		c0.47,0.63,0.68,1.43,0.57,2.21l-1.66,11.64c-0.23,1.64,0.9,3.15,2.54,3.39c0,0,0,0,0,0l17.77,2.54c0.14,0.02,0.28,0.03,0.42,0.03
		c1.49,0,2.75-1.09,2.96-2.57l1.66-11.64c0.23-1.64,1.75-2.77,3.38-2.54c0.79,0.11,1.5,0.53,1.97,1.17l7.05,9.4
		c0.99,1.32,2.87,1.59,4.19,0.6l0,0l14.36-10.77c1.32-0.99,1.59-2.87,0.6-4.19l-7.05-9.4c-0.74-0.96-0.81-2.28-0.18-3.32
		c0.6-1.06,1.79-1.63,2.99-1.44l11.64,1.66c1.64,0.23,3.15-0.9,3.39-2.54c0,0,0,0,0,0l2.54-17.77
		C213.18,87.66,212.05,86.14,210.4,85.9C210.41,85.91,210.41,85.91,210.4,85.9L210.4,85.9z M71.68,132.08
		c2.75,5.93,6.51,11.34,11.11,15.99c-2.23,6.21-9.08,9.43-15.29,7.2s-9.43-9.08-7.2-15.29c1.71-4.75,6.22-7.91,11.27-7.9H71.68z
		 M129.2,212.86h-11.97c-3.3,0-5.98-2.68-5.98-5.98v-2.99h23.94v2.99C135.18,210.18,132.5,212.86,129.2,212.86z M135.18,191.92v5.98
		h-23.94v-5.98H135.18z M98.57,163.67l-6.42,6.41l-6.21-4.28c-2.72-1.88-6.45-1.19-8.32,1.53c-0.45,0.65-0.77,1.39-0.93,2.16
		l-1.57,7.47h-7.11l-1.57-7.46c-0.68-3.23-3.85-5.3-7.09-4.62c-0.78,0.16-1.51,0.48-2.16,0.93l-6.22,4.27l-5.45-5.44l4.28-6.21
		c1.88-2.72,1.19-6.45-1.53-8.32c-0.65-0.45-1.39-0.77-2.17-0.93l-7.46-1.57v-7.11l7.46-1.57c3.23-0.69,5.3-3.86,4.61-7.09
		c-0.16-0.77-0.47-1.49-0.92-2.14l-4.28-6.23l5.45-5.44l6.22,4.28c2.72,1.87,6.45,1.19,8.32-1.54c0.45-0.65,0.76-1.39,0.93-2.16
		l0.52-2.49c0.48,3.45,1.27,6.84,2.37,10.15c-9.84,1.17-16.87,10.11-15.7,19.95c1.17,9.84,10.11,16.87,19.95,15.7
		c5.93-0.71,11.11-4.31,13.84-9.62c1.63,1.34,3.34,2.58,5.11,3.72C95.37,157.8,97.5,160.5,98.57,163.67L98.57,163.67z
		 M204.89,103.25l-8.68-1.24c-4.91-0.7-9.45,2.71-10.15,7.62c-0.34,2.36,0.28,4.75,1.71,6.65l5.26,7.01l-9.57,7.18l-5.26-7.01
		c-2.97-3.97-8.6-4.77-12.57-1.8c-1.9,1.43-3.16,3.55-3.5,5.91l-1.21,8.69l-11.84-1.69l1.24-8.68c0.7-4.91-2.71-9.45-7.61-10.16
		c-2.36-0.34-4.75,0.28-6.66,1.71l-7.01,5.26l-7.18-9.57l7.01-5.26c3.97-2.97,4.77-8.6,1.8-12.57c-1.43-1.9-3.55-3.16-5.91-3.5
		l-8.68-1.24l1.69-11.84l8.68,1.24c4.91,0.7,9.45-2.71,10.16-7.61c0.34-2.36-0.28-4.75-1.71-6.66l-5.27-7.02l9.57-7.18l5.26,7.01
		c2.97,3.97,8.6,4.77,12.57,1.8c1.9-1.43,3.16-3.55,3.5-5.91l1.24-8.68l11.84,1.69l-1.24,8.68c-0.7,4.91,2.71,9.45,7.62,10.15
		c2.36,0.34,4.75-0.28,6.65-1.71l7.01-5.26l7.18,9.57l-7.01,5.26c-3.97,2.97-4.77,8.6-1.8,12.57c1.43,1.9,3.55,3.16,5.91,3.5
		l8.68,1.24L204.89,103.25z"/>
	<path class="st8" d="M161.32,67.05c-13.22,0-23.94,10.72-23.94,23.94s10.72,23.94,23.94,23.94s23.94-10.72,23.94-23.94
		C185.24,77.77,174.53,67.06,161.32,67.05z M161.32,108.93c-9.91,0-17.95-8.04-17.95-17.95s8.04-17.95,17.95-17.95
		s17.95,8.04,17.95,17.95C179.26,100.89,171.23,108.92,161.32,108.93z"/>
	<path class="st8" d="M120.22,170.97h5.98v8.98h-5.98V170.97z"/>
	<path class="st8" d="M110.13,141.59c-18.47-7.22-27.59-28.04-20.38-46.51c2.8-7.16,7.81-13.23,14.32-17.32l-3.2-5.06
		c-19.57,12.33-25.44,38.19-13.11,57.77c4.78,7.58,11.86,13.43,20.2,16.69c7.39,2.83,12.26,9.92,12.27,17.83h5.98
		C126.22,154.61,119.82,145.3,110.13,141.59z"/>
	<path class="st8" d="M180.06,150.03H201v5.98h-20.94V150.03z"/>
	<path class="st8" d="M175.15,170.28l3.83-4.6l17.95,14.96l-3.83,4.6L175.15,170.28z"/>
	<path class="st8" d="M162.11,173.97h5.98v20.94h-5.98V173.97z"/>
	<path class="st8" d="M35.72,90.28l23.93-5.98l1.45,5.8l-23.93,5.98L35.72,90.28z"/>
	<path class="st8" d="M40.69,59.72l3.48-4.87l20.94,14.96l-3.48,4.87L40.69,59.72z"/>
	<path class="st8" d="M66.33,40.07l5.8-1.48l6.12,23.93L72.45,64L66.33,40.07z"/>
</g>
</svg>
