<?xml version="1.0" encoding="utf-8"?>
<!-- Generator: Adobe Illustrator 23.0.2, SVG Export Plug-In . SVG Version: 6.00 Build 0)  -->
<svg version="1.1" id="Layer_1" xmlns="http://www.w3.org/2000/svg" xmlns:xlink="http://www.w3.org/1999/xlink" x="0px" y="0px"
	 viewBox="0 0 250 250" style="enable-background:new 0 0 250 250;" xml:space="preserve">
<style type="text/css">
	.st0{display:none;}
	.st1{display:inline;fill:#6C9DD3;}
	.st2{display:inline;fill:#FFCE04;}
	.st3{display:inline;fill:#F47859;}
	.st4{display:inline;fill:#9ECC3B;}
	.st5{display:inline;fill:none;}
	.st6{display:inline;fill:#7BD0E2;}
	.st7{display:inline;fill:#B6D433;}
	.st8{display:inline;fill:#010101;}
	.st9{fill:#989898;}
	.st10{fill:#BBB9BA;}
	.st11{fill:#DF9363;}
	.st12{fill:#CA5057;}
	.st13{fill:#DC6068;}
	.st14{fill:#5D88C6;}
	.st15{fill:#709BD1;}
	.st16{fill:#D9D8D8;}
	.st17{fill:#96CCE6;}
	.st18{fill:#010101;}
	.st19{display:inline;fill:#79D2F7;}
	.st20{display:inline;fill:#FCCE9E;}
	.st21{display:inline;fill:#FFFFFF;}
	.st22{display:inline;}
	.st23{display:inline;fill:#AAB2BD;}
	.st24{display:inline;fill:#F48270;}
	.st25{display:inline;fill:#D3A16D;}
	.st26{display:inline;fill:#FCD770;}
	.st27{display:inline;fill:#E39E25;}
	.st28{display:inline;fill:#EBEBEB;}
	.st29{display:inline;fill:#14BDE0;}
	.st30{display:inline;fill:#CCDEF2;}
</style>
<g id="Protection-3" class="st0">
	<path class="st1" d="M187.09,102.14c0,19.16-14.4,35.25-33.44,37.37c-1.38,0.15-2.77,0.23-4.16,0.23c-20.77,0-37.6-16.83-37.6-37.6
		s16.83-37.6,37.6-37.6S187.09,81.37,187.09,102.14L187.09,102.14z"/>
	<path class="st2" d="M170.38,83.34V97.9c0,6.76-2.52,13.27-7.06,18.28l-13.83,15.21l-13.83-15.21c-4.54-5-7.06-11.52-7.06-18.28
		V83.34l20.89-6.27L170.38,83.34z"/>
	<path class="st3" d="M153.67,139.73v29.24c-0.01,2.3-1.87,4.17-4.18,4.18H70.12c-2.3-0.01-4.17-1.87-4.18-4.18v-29.24
		c0.01-2.3,1.87-4.17,4.18-4.18h62.16c5.32,2.75,11.22,4.19,17.21,4.18c1.39,0,2.78-0.08,4.16-0.23
		C153.67,139.58,153.68,139.66,153.67,139.73z"/>
	<path class="st4" d="M145.32,173.15v6.27c0,3.46-2.81,6.27-6.27,6.27c-3.46,0-6.27-2.81-6.27-6.27l0,0v-6.27H145.32z"/>
	<circle class="st2" cx="132.79" cy="154.36" r="8.36"/>
	<path class="st5" d="M132.28,135.56H97.28c0-4.61-3.74-8.36-8.36-8.36c-4.61,0-8.36,3.74-8.36,8.36H74.3l1.04-8.36l1.04-8.36
		l1.63-13.05c0.27-2.09,2.05-3.65,4.16-3.66h29.72C111.89,116.22,119.76,129.12,132.28,135.56L132.28,135.56z"/>
	<path class="st6" d="M97.28,135.56H80.57c0-4.61,3.74-8.36,8.36-8.36C93.54,127.2,97.28,130.94,97.28,135.56z"/>
	<circle class="st2" cx="86.83" cy="154.36" r="8.36"/>
	<path class="st4" d="M86.83,173.15v6.27c0,3.46-2.81,6.27-6.27,6.27c-3.46,0-6.27-2.81-6.27-6.27l0,0v-6.27H86.83z"/>
	<path class="st7" d="M76.39,118.85l-1.04,8.36h-5.22c-2.3-0.01-4.17-1.87-4.18-4.18c0.02-2.3,1.88-4.16,4.18-4.18H76.39z"/>
	<path class="st8" d="M86.83,143.91c-5.77,0-10.44,4.68-10.44,10.44c0,5.77,4.68,10.44,10.44,10.44s10.44-4.68,10.44-10.44
		C97.27,148.59,92.6,143.92,86.83,143.91z M86.83,160.62c-3.46,0-6.27-2.81-6.27-6.27c0-3.46,2.81-6.27,6.27-6.27
		c3.46,0,6.27,2.81,6.27,6.27C93.1,157.82,90.29,160.62,86.83,160.62z"/>
	<path class="st8" d="M132.79,143.91c-5.77,0-10.44,4.68-10.44,10.44c0,5.77,4.68,10.44,10.44,10.44c5.77,0,10.44-4.68,10.44-10.44
		C143.22,148.59,138.55,143.92,132.79,143.91z M132.79,160.62c-3.46,0-6.27-2.81-6.27-6.27c0-3.46,2.81-6.27,6.27-6.27
		s6.27,2.81,6.27,6.27C139.05,157.82,136.25,160.62,132.79,160.62z"/>
	<path class="st8" d="M189.18,102.14c0.03-21.9-17.7-39.68-39.6-39.72c-21.13-0.03-38.58,16.52-39.66,37.63H82.17
		c-3.16,0-5.83,2.35-6.22,5.49l-1.4,11.22h-4.42c-3.45,0.02-6.25,2.81-6.27,6.27c0,3.46,2.81,6.27,6.27,6.27h2.86l-0.52,4.18h-2.33
		c-3.46,0-6.27,2.81-6.27,6.27v29.24c0,3.46,2.81,6.27,6.27,6.27h2.09v4.18c0,4.61,3.74,8.35,8.36,8.35c4.61,0,8.35-3.74,8.35-8.35
		v-4.18h41.78v4.18c0,4.61,3.74,8.36,8.36,8.36c4.61,0,8.36-3.74,8.36-8.36v-4.18h2.09c3.46,0,6.27-2.81,6.27-6.27v-27.7
		C174.99,138.19,189.15,121.61,189.18,102.14L189.18,102.14z M70.12,125.11c-1.15,0-2.09-0.94-2.09-2.09c0-0.56,0.23-1.1,0.64-1.49
		c0.38-0.39,0.9-0.61,1.45-0.6h3.9l-0.52,4.18H70.12z M80.09,106.05c0.13-1.05,1.02-1.83,2.07-1.83h27.75
		c0.6,11.51,6.19,22.19,15.31,29.24H99.16c-1.15-5.65-6.66-9.3-12.31-8.16c-4.11,0.83-7.32,4.05-8.16,8.16h-2.02L80.09,106.05z
		 M94.8,133.47H83.04c1.13-3.25,4.68-4.96,7.93-3.83C92.77,130.26,94.18,131.67,94.8,133.47z M84.74,179.42
		c0,2.31-1.87,4.18-4.18,4.18c-2.31,0-4.18-1.87-4.18-4.18v-4.18h8.36V179.42z M143.23,179.42c0,2.31-1.87,4.18-4.18,4.18
		s-4.18-1.87-4.18-4.18v-4.18h8.36V179.42z M151.58,168.98c0,1.15-0.94,2.09-2.09,2.09H70.12c-1.15,0-2.09-0.94-2.09-2.09v-29.24
		c0-1.15,0.94-2.09,2.09-2.09h61.76c5.47,2.74,11.5,4.17,17.62,4.18c0.71,0,1.39-0.07,2.09-0.11V168.98z M149.5,137.65
		c-19.61,0-35.51-15.9-35.51-35.51s15.9-35.51,35.51-35.51s35.51,15.9,35.51,35.51C184.98,121.74,169.1,137.62,149.5,137.65z"/>
	<path class="st8" d="M170.98,81.34l-20.89-6.27c-0.39-0.12-0.81-0.12-1.2,0l-20.89,6.27c-0.88,0.26-1.49,1.08-1.49,2V97.9
		c-0.01,7.28,2.71,14.29,7.61,19.67l13.83,15.21c0.78,0.85,2.1,0.92,2.95,0.14c0.05-0.04,0.1-0.09,0.14-0.14l13.83-15.21
		c4.9-5.38,7.61-12.4,7.61-19.67V83.34C172.47,82.41,171.87,81.6,170.98,81.34L170.98,81.34z M168.3,97.9
		c0.01,6.24-2.32,12.25-6.52,16.86l-12.28,13.51l-12.28-13.51c-4.2-4.61-6.52-10.62-6.52-16.86V84.89l18.8-5.64l18.8,5.64V97.9z"/>
	<path class="st8" d="M140.89,101.02l-2.95,2.95l5.91,5.91c0.82,0.82,2.14,0.82,2.95,0l17.72-17.72l-2.95-2.95l-16.25,16.25
		L140.89,101.02z"/>
	<path class="st8" d="M101.45,148.09h4.18v4.18h-4.18V148.09z"/>
	<path class="st8" d="M113.99,148.09h4.18v4.18h-4.18V148.09z"/>
	<path class="st8" d="M101.45,156.44h4.18v4.18h-4.18V156.44z"/>
	<path class="st8" d="M113.99,156.44h4.18v4.18h-4.18V156.44z"/>
</g>
<g>
	<path class="st9" d="M125.54,112.52c0-0.13,0.04-0.25,0.04-0.37c0-4.35-2.64-8.08-6.41-9.67c1.39-2.03,2.21-4.48,2.21-7.12
		c0-3.01-1.06-5.77-2.82-7.94c3.02-2.69,4.92-6.59,4.92-10.95c0-8.12-6.58-14.7-14.7-14.7s-14.7,6.58-14.7,14.7
		c0,0.78,0.08,1.54,0.19,2.29c-3.26,0.6-5.96,2.71-7.42,5.58c-1.87-4.61-6.39-7.87-11.67-7.87c-6.96,0-12.6,5.64-12.6,12.6
		c0,6.96,5.64,12.6,12.6,12.6c5.29,0,9.8-3.26,11.67-7.87c1.73,3.41,5.24,5.77,9.33,5.77c0.24,0,0.47-0.05,0.71-0.07
		c1.38,3.97,4.68,7.03,8.8,8.07c-0.68,1.39-1.1,2.94-1.1,4.6c0,5.8,4.7,10.5,10.5,10.5c1.15,0,2.23-0.23,3.27-0.57
		c1.14,1.61,3.01,2.67,5.13,2.67c3.48,0,6.3-2.82,6.3-6.3C129.78,115.69,128,113.37,125.54,112.52z"/>
	<path class="st10" d="M119.24,112.52c0-0.13,0.04-0.25,0.04-0.37c0-4.35-2.64-8.08-6.41-9.67c1.39-2.03,2.21-4.48,2.21-7.12
		c0-3.01-1.06-5.77-2.82-7.94c3.02-2.69,4.92-6.59,4.92-10.95c0-7.04-4.95-12.91-11.55-14.35c-6.6,1.44-11.55,7.32-11.55,14.35
		c0,0.78,0.08,1.54,0.19,2.29c-3.26,0.6-5.96,2.71-7.42,5.58c-0.62-1.52-1.55-2.88-2.67-4.04c-1.53,1.01-2.79,2.39-3.63,4.04
		c-1.49-3.67-4.67-6.45-8.56-7.45c-5.41,1.41-9.41,6.32-9.41,12.18s4,10.76,9.41,12.18c3.9-0.99,7.07-3.78,8.56-7.45
		c0.84,1.64,2.09,3.04,3.62,4.04c1.13-1.16,2.06-2.52,2.68-4.04c1.73,3.41,5.24,5.77,9.33,5.77c0.24,0,0.47-0.05,0.71-0.07
		c1.38,3.97,4.68,7.03,8.8,8.07c-0.68,1.39-1.1,2.94-1.1,4.6c0,4.69,3.1,8.61,7.34,9.96c0.04-0.01,0.08-0.02,0.13-0.03
		c0.02,0.04,0.06,0.06,0.09,0.1c0.94,0.28,1.91,0.47,2.95,0.47c1.15,0,2.23-0.23,3.27-0.57c0.52,0.74,1.21,1.34,1.99,1.79
		c1.87-1.09,3.15-3.1,3.15-5.42C123.48,115.69,121.7,113.37,119.24,112.52z"/>
	<path class="st11" d="M94.08,120.54c0,4.64-3.76,8.4-8.4,8.4c-4.64,0-8.4-3.76-8.4-8.4s3.76-8.4,8.4-8.4
		C90.32,112.14,94.08,115.9,94.08,120.54z"/>
	<path class="st12" d="M102.48,137.34c0,2.32-1.88,4.2-4.2,4.2c-2.32,0-4.2-1.88-4.2-4.2c0-2.32,1.88-4.2,4.2-4.2
		C100.6,133.14,102.48,135.02,102.48,137.34z"/>
	<path class="st12" d="M90.21,161.09l3.88-4.85l6.3,14.7c0,9.28-7.52,16.8-16.8,16.8h-4.2c-9.28,0-16.8-7.52-16.8-16.8l6.3-14.7
		l3.88,4.85l8.72-17.45L90.21,161.09z"/>
	<path class="st11" d="M90.21,169.49l-8.72-17.45l-8.72,17.45l-3.88-4.85l-5.22,12.18c2.38,6.37,8.51,10.92,15.72,10.92h4.2
		c7.2,0,13.33-4.55,15.72-10.92l-5.22-12.18L90.21,169.49z"/>
	<path class="st12" d="M85.68,175.14c0,2.32-1.88,4.2-4.2,4.2c-2.32,0-4.2-1.88-4.2-4.2s1.88-4.2,4.2-4.2
		C83.8,170.94,85.68,172.82,85.68,175.14z"/>
	<path class="st12" d="M138.18,82.75h50.4v104.99h-50.4V82.75z"/>
	<path class="st13" d="M138.18,82.75h42v104.99h-42V82.75z"/>
	<path class="st14" d="M112.98,133.14h46.2v54.6h-46.2V133.14z"/>
	<path class="st15" d="M112.98,133.14h35.7v54.6h-35.7V133.14z"/>
	<path class="st16" d="M159.18,149.94h-33.6v-8.4h33.6"/>
	<path class="st16" d="M159.18,166.74h-33.6v-8.4h33.6"/>
	<g>
		<path class="st17" d="M146.58,91.14h12.6v8.4h-12.6V91.14z"/>
		<path class="st17" d="M167.58,91.14h12.6v8.4h-12.6V91.14z"/>
		<path class="st17" d="M146.58,107.94h12.6v8.4h-12.6V107.94z"/>
		<path class="st17" d="M167.58,107.94h12.6v8.4h-12.6V107.94z"/>
		<path class="st17" d="M167.58,124.74h12.6v8.4h-12.6V124.74z"/>
		<path class="st17" d="M167.58,141.54h12.6v8.4h-12.6V141.54z"/>
		<path class="st17" d="M167.58,158.34h12.6v8.4h-12.6V158.34z"/>
		<path class="st17" d="M159.18,133.14v-8.4h-12.6v8.4"/>
	</g>
	<path class="st18" d="M188.58,189.84h-29.4v-4.2h27.3V84.85h-46.2v48.3h-4.2v-50.4c0-1.16,0.94-2.1,2.1-2.1h50.4
		c1.16,0,2.1,0.94,2.1,2.1v104.99C190.68,188.9,189.73,189.84,188.58,189.84z"/>
	<path class="st18" d="M159.18,189.84h-46.2c-1.16,0-2.1-0.94-2.1-2.1v-54.6c0-1.16,0.94-2.1,2.1-2.1h46.2c1.16,0,2.1,0.94,2.1,2.1
		v54.6C161.28,188.9,160.34,189.84,159.18,189.84z M115.08,185.64h42v-50.4h-42V185.64z"/>
	<path class="st18" d="M159.18,152.04h-33.6c-1.16,0-2.1-0.94-2.1-2.1v-8.4c0-1.16,0.94-2.1,2.1-2.1h33.6v4.2h-31.5v4.2h31.5V152.04
		z"/>
	<path class="st18" d="M159.18,168.84h-33.6c-1.16,0-2.1-0.94-2.1-2.1v-8.4c0-1.16,0.94-2.1,2.1-2.1h33.6v4.2h-31.5v4.2h31.5V168.84
		z"/>
	<path class="st18" d="M159.18,101.64h-12.6c-1.16,0-2.1-0.94-2.1-2.1v-8.4c0-1.16,0.94-2.1,2.1-2.1h12.6c1.16,0,2.1,0.94,2.1,2.1
		v8.4C161.28,100.7,160.34,101.64,159.18,101.64z M148.68,97.44h8.4v-4.2h-8.4V97.44z"/>
	<path class="st18" d="M180.18,101.64h-12.6c-1.16,0-2.1-0.94-2.1-2.1v-8.4c0-1.16,0.94-2.1,2.1-2.1h12.6c1.16,0,2.1,0.94,2.1,2.1
		v8.4C182.28,100.7,181.34,101.64,180.18,101.64z M169.68,97.44h8.4v-4.2h-8.4V97.44z"/>
	<path class="st18" d="M159.18,118.44h-12.6c-1.16,0-2.1-0.94-2.1-2.1v-8.4c0-1.16,0.94-2.1,2.1-2.1h12.6c1.16,0,2.1,0.94,2.1,2.1
		v8.4C161.28,117.5,160.34,118.44,159.18,118.44z M148.68,114.24h8.4v-4.2h-8.4V114.24z"/>
	<path class="st18" d="M180.18,118.44h-12.6c-1.16,0-2.1-0.94-2.1-2.1v-8.4c0-1.16,0.94-2.1,2.1-2.1h12.6c1.16,0,2.1,0.94,2.1,2.1
		v8.4C182.28,117.5,181.34,118.44,180.18,118.44z M169.68,114.24h8.4v-4.2h-8.4V114.24z"/>
	<path class="st18" d="M180.18,135.24h-12.6c-1.16,0-2.1-0.94-2.1-2.1v-8.4c0-1.16,0.94-2.1,2.1-2.1h12.6c1.16,0,2.1,0.94,2.1,2.1
		v8.4C182.28,134.3,181.34,135.24,180.18,135.24z M169.68,131.04h8.4v-4.2h-8.4V131.04z"/>
	<path class="st18" d="M180.18,152.04h-12.6c-1.16,0-2.1-0.94-2.1-2.1v-8.4c0-1.16,0.94-2.1,2.1-2.1h12.6c1.16,0,2.1,0.94,2.1,2.1
		v8.4C182.28,151.1,181.34,152.04,180.18,152.04z M169.68,147.84h8.4v-4.2h-8.4V147.84z"/>
	<path class="st18" d="M180.18,168.84h-12.6c-1.16,0-2.1-0.94-2.1-2.1v-8.4c0-1.16,0.94-2.1,2.1-2.1h12.6c1.16,0,2.1,0.94,2.1,2.1
		v8.4C182.28,167.9,181.34,168.84,180.18,168.84z M169.68,164.64h8.4v-4.2h-8.4V164.64z"/>
	<path class="st18" d="M161.28,133.14h-4.2v-6.3h-8.4v6.3h-4.2v-8.4c0-1.16,0.94-2.1,2.1-2.1h12.6c1.16,0,2.1,0.94,2.1,2.1V133.14z"
		/>
	<path class="st18" d="M123.48,126.84c-2.2,0-4.3-0.88-5.85-2.39c-0.87,0.2-1.71,0.29-2.54,0.29c-6.95,0-12.6-5.65-12.6-12.6
		c0-1.12,0.16-2.23,0.47-3.32c-3.27-1.41-5.92-3.96-7.44-7.2c-3.25-0.17-6.25-1.6-8.43-3.93c-2.72,3.76-7.09,6.05-11.89,6.05
		c-8.11,0-14.7-6.59-14.7-14.7s6.59-14.7,14.7-14.7c4.8,0,9.17,2.29,11.89,6.06c1.36-1.44,3.06-2.55,4.93-3.22
		c-0.01-0.25-0.02-0.49-0.02-0.74c0-9.26,7.54-16.8,16.8-16.8s16.8,7.54,16.8,16.8c0,4.14-1.54,8.12-4.29,11.19
		c1.42,2.3,2.19,4.99,2.19,7.71c0,2.2-0.49,4.34-1.42,6.3c3.21,2.13,5.29,5.63,5.58,9.53c2.58,1.48,4.24,4.24,4.24,7.27
		C131.88,123.07,128.11,126.84,123.48,126.84z M118.35,119.97c0.67,0,1.31,0.32,1.71,0.89c0.79,1.12,2.07,1.78,3.42,1.78
		c2.32,0,4.2-1.88,4.2-4.2c0-1.77-1.14-3.35-2.83-3.94c-0.87-0.3-1.44-1.14-1.41-2.07c0-0.07,0.03-0.32,0.04-0.39
		c0-3.29-2.02-6.33-5.13-7.64c-0.58-0.25-1.02-0.74-1.2-1.35c-0.18-0.6-0.07-1.26,0.29-1.78c1.2-1.75,1.84-3.8,1.84-5.93
		c0-2.44-0.81-4.72-2.35-6.62c-0.71-0.87-0.61-2.14,0.23-2.89c2.68-2.4,4.22-5.82,4.22-9.39c0-6.95-5.65-12.6-12.6-12.6
		s-12.6,5.65-12.6,12.6c0,0.6,0.05,1.22,0.17,1.97c0.18,1.12-0.58,2.18-1.69,2.39c-2.57,0.47-4.73,2.1-5.93,4.46
		c-0.37,0.73-1.16,1.16-1.96,1.15c-0.82-0.04-1.55-0.55-1.86-1.31c-1.62-3.99-5.44-6.56-9.73-6.56c-5.79,0-10.5,4.71-10.5,10.5
		s4.71,10.5,10.5,10.5c4.29,0,8.11-2.57,9.73-6.56c0.31-0.76,1.04-1.27,1.86-1.31c0.8-0.04,1.59,0.41,1.96,1.15
		c1.45,2.85,4.31,4.62,7.45,4.62c0.27-0.04,0.42-0.06,0.57-0.07c0.94-0.05,1.81,0.51,2.12,1.41c1.16,3.34,3.9,5.86,7.33,6.73
		c0.61,0.16,1.13,0.58,1.39,1.16c0.26,0.58,0.26,1.24-0.02,1.81c-0.59,1.2-0.89,2.43-0.89,3.67c0,4.63,3.77,8.4,8.4,8.4
		c0.8,0,1.66-0.15,2.61-0.46C117.91,120.01,118.13,119.97,118.35,119.97z"/>
	<path class="st18" d="M83.58,189.84h-4.2c-10.42,0-18.9-8.48-18.9-18.9c0-0.29,0.06-0.57,0.17-0.83l6.3-14.7
		c0.29-0.68,0.92-1.15,1.65-1.26c0.73-0.1,1.46,0.2,1.92,0.77l8.4,10.5l-3.28,2.62l-6.21-7.76l-4.74,11.07
		c0.22,7.91,6.73,14.28,14.69,14.28h4.2c7.96,0,14.47-6.37,14.69-14.28l-4.74-11.07l-6.21,7.76l-3.28-2.62l8.4-10.5
		c0.46-0.57,1.19-0.87,1.92-0.77c0.73,0.1,1.36,0.58,1.65,1.26l6.3,14.7c0.12,0.26,0.17,0.54,0.17,0.83
		C102.48,181.36,94,189.84,83.58,189.84z"/>
	<path class="st18" d="M88,161.38l-6.52-13.04l-6.52,13.04l-3.76-1.88l8.4-16.8c0.71-1.42,3.05-1.42,3.76,0l8.4,16.8L88,161.38z"/>
	<path class="st18" d="M81.48,181.44c-3.47,0-6.3-2.83-6.3-6.3s2.83-6.3,6.3-6.3c3.47,0,6.3,2.83,6.3,6.3S84.96,181.44,81.48,181.44
		z M81.48,173.04c-1.16,0-2.1,0.94-2.1,2.1s0.94,2.1,2.1,2.1c1.16,0,2.1-0.94,2.1-2.1S82.64,173.04,81.48,173.04z"/>
	<path class="st18" d="M98.28,143.64c-3.47,0-6.3-2.83-6.3-6.3s2.83-6.3,6.3-6.3s6.3,2.83,6.3,6.3S101.76,143.64,98.28,143.64z
		 M98.28,135.24c-1.16,0-2.1,0.94-2.1,2.1c0,1.16,0.94,2.1,2.1,2.1c1.16,0,2.1-0.94,2.1-2.1
		C100.38,136.18,99.44,135.24,98.28,135.24z"/>
	<path class="st18" d="M85.68,131.04c-5.79,0-10.5-4.71-10.5-10.5s4.71-10.5,10.5-10.5c5.79,0,10.5,4.71,10.5,10.5
		S91.47,131.04,85.68,131.04z M85.68,114.24c-3.47,0-6.3,2.83-6.3,6.3s2.83,6.3,6.3,6.3c3.47,0,6.3-2.83,6.3-6.3
		S89.16,114.24,85.68,114.24z"/>
</g>
<g id="XMLID_1577_" class="st0">
	<polygon id="XMLID_3258_" class="st19" points="102.64,177.56 91.07,189.13 62.11,189.13 62.11,160.17 73.69,148.6 	"/>
	<path id="XMLID_3257_" class="st20" d="M184.39,150.93c-2.43-2.64-6.43-3.12-9.42-1.11c-6.39,4.29-17.28,11.52-24.23,16.14
		c-4.24,2.82-9.22,4.32-14.31,4.32l-0.24-0.07c2.22-0.09,4.36-1.25,5.62-3.25c1.98-3.14,1.17-7.28-1.86-9.43l-20.34-14.45
		c-8.33-5.92-19.49-5.95-27.85-0.07l-13.91,9.77l23.17,23.17l27.12,9.64c8.79,3.12,18.55,1.79,26.18-3.57l28.91-20.31
		C186.8,159.2,187.34,154.13,184.39,150.93z"/>
	<path id="XMLID_2028_" class="st21" d="M158.93,114.75c0.24-0.71,0.43-1.22,0.65-1.44c2.88-2.88,4.48-6.79,4.44-10.85l-0.01-1.12
		l0,0c1.19-2.08,1.76-4.47,1.62-6.91l-0.17-2.92l-1.06,1.06c2.95-2.95,3.84-7.38,2.25-11.24l-1.03-2.5c1.55-3.11,2-6.72,1.16-10.2
		l-0.89-3.69l-7.31,7.31c-3.62,3.62-7.96,6.46-12.72,8.34c-7.17,2.82-13.28,7.78-17.52,14.22l-1.92,2.92l-0.11,1.12l-1.72-7.97
		c-1.04-4.85-5.33-8.31-10.29-8.31c-6.38,0-11.3,5.64-10.43,11.96l2.28,16.6c1.78,12.92,12.82,22.55,25.86,22.55
		c4.25,0,8.33-1.03,11.94-2.9l-0.01,0.02c0,0,12.16-4.64,24,0.78c6.53-9.95,7.78-22.3,7.78-22.3L158.93,114.75z M146.14,129.53
		c-0.66,0.42-1.34,0.82-2.04,1.18C144.39,130.56,145.14,130.14,146.14,129.53z"/>
	<g id="XMLID_327_" class="st22">
		<path id="XMLID_338_" class="st18" d="M186.25,149.22c-3.3-3.59-8.64-4.22-12.68-1.5c-6.21,4.16-16.6,11.07-24.22,16.14
			c-1.39,0.92-2.86,1.68-4.39,2.28c1.25-3.86-0.09-8.21-3.54-10.67l-20.34-14.45c-9.18-6.52-21.55-6.56-30.77-0.08l-12.17,8.55
			l-2.67-2.67c-0.99-0.99-2.58-0.99-3.57,0l-11.57,11.57c-0.99,0.99-0.99,2.58,0,3.57c0.99,0.99,2.58,0.99,3.57,0l9.79-9.79
			l25.38,25.38l-9.79,9.79c-0.99,0.99-0.99,2.58,0,3.57c0.49,0.49,1.14,0.74,1.78,0.74c0.65,0,1.29-0.25,1.78-0.74l11.21-11.21
			l23.24,8.26c3.4,1.21,6.94,1.8,10.47,1.8c6.36,0,12.67-1.94,18.01-5.68l1.8-1.27c1.14-0.8,1.42-2.38,0.61-3.52
			c-0.8-1.14-2.38-1.42-3.52-0.61l-1.8,1.27c-6.95,4.88-15.88,6.1-23.88,3.26l-26.58-9.45l-20.64-20.64l11.45-8.04
			c7.47-5.25,17.5-5.22,24.94,0.07l20.34,14.45c1.93,1.37,2.45,4.02,1.19,6.02c-1.24,1.96-3.74,2.65-5.8,1.59
			c-7.17-3.66-18.62-9.48-18.62-9.48l0,0c-0.34-0.17-0.73-0.28-1.14-0.28c-1.39,0-2.52,1.13-2.52,2.52c0,0.98,0.56,1.83,1.38,2.25
			l0,0c0,0,11.44,5.82,18.62,9.47c1.39,0.71,2.87,1.05,4.33,1.05c0.17,0.04,0.34,0.05,0.52,0.05c5.61,0,11.04-1.64,15.71-4.74
			c7.63-5.07,18.03-11.98,24.24-16.15c1.96-1.32,4.55-1.01,6.16,0.73c0.93,1.01,1.36,2.31,1.21,3.67c-0.15,1.36-0.84,2.54-1.96,3.33
			l-10.58,7.43c-1.14,0.8-1.42,2.38-0.61,3.52c0.8,1.14,2.38,1.42,3.52,0.61l10.58-7.43c2.29-1.61,3.78-4.13,4.08-6.92
			C189.07,154.06,188.15,151.28,186.25,149.22z"/>
		<path id="XMLID_432_" class="st18" d="M114.39,96.84c0.66,0,1.32-0.27,1.78-0.74c0.47-0.47,0.74-1.12,0.74-1.78
			c0-0.66-0.27-1.32-0.74-1.78c-0.47-0.47-1.12-0.74-1.78-0.74c-0.66,0-1.32,0.27-1.78,0.74c-0.47,0.47-0.74,1.12-0.74,1.78
			c0,0.66,0.27,1.32,0.74,1.78C113.08,96.57,113.73,96.84,114.39,96.84z"/>
		<path id="XMLID_939_" class="st18" d="M97.44,98.68h4.47l1.76,12.8c0.94,6.85,4.33,13.13,9.55,17.68
			c5.21,4.55,11.9,7.05,18.82,7.05c4.5,0,8.87-1.04,12.83-3.04c0.24-0.09,11.42-4.15,22.05,0.72c0.34,0.15,0.7,0.23,1.05,0.23
			c0.83,0,1.63-0.41,2.11-1.14c6.79-10.35,8.13-22.9,8.19-23.43c0.09-0.85-0.26-1.68-0.93-2.22s-1.55-0.7-2.36-0.44l-10.15,3.3
			c1.14-2.41,1.75-5.06,1.73-7.75l0-0.47c1.2-2.35,1.77-5,1.61-7.68l-0.13-2.24c2.15-3.46,2.56-7.79,0.96-11.67l-0.62-1.5
			c1.4-3.38,1.75-7.19,0.87-10.82l-0.89-3.69c-0.21-0.89-0.89-1.59-1.77-1.84c-0.88-0.25-1.82,0-2.47,0.64l-7.31,7.31
			c-3.4,3.4-7.39,6.01-11.86,7.77c-7.04,2.77-13.06,7.4-17.51,13.46l-0.38-1.41c-1.31-5.94-6.66-10.24-12.74-10.24
			c-3.77,0-7.36,1.63-9.84,4.47c-1.59,1.83-2.62,4.04-3.02,6.38l-5.29,3.06c-0.99,0.57-1.47,1.74-1.17,2.84
			C95.29,97.91,96.29,98.68,97.44,98.68z M166.95,128.44c-4.77-1.77-9.46-2.15-13.41-1.97c2.22-2.53,3.99-5.44,5.22-8.64l0.16-0.43
			l13.66-4.44C171.8,116.81,170.16,122.88,166.95,128.44z M108.29,87.85c1.52-1.74,3.72-2.74,6.03-2.74c3.74,0,7.03,2.66,7.82,6.32
			c0.01,0.04,0.02,0.08,0.03,0.12l1.82,6.84c0.26,0.96,1.05,1.68,2.04,1.84c0.98,0.16,1.97-0.27,2.51-1.11l1.92-2.92
			c3.97-6.03,9.61-10.61,16.33-13.25c5.12-2.01,9.69-5.01,13.59-8.9l4.11-4.11c0.71,3.98-0.58,8.15-3.45,11.02l-3.23,3.23
			c-0.99,0.99-0.99,2.58,0,3.57c0.99,0.99,2.58,0.99,3.57,0l3.23-3.23c0.08-0.08,0.16-0.17,0.24-0.25c0.3,2.35-0.47,4.74-2.19,6.48
			l-1.53,1.53h0c-0.99,0.99-0.99,2.58,0,3.57c0.52,0.52,1.22,0.77,1.9,0.74c-0.17,1.16-0.54,2.28-1.1,3.31l-3.24,3.83
			c-0.87,1.03-0.78,2.57,0.22,3.49c0.41,0.38,0.91,0.59,1.43,0.65c-0.62,1.35-1.48,2.6-2.54,3.66c-0.6,0.6-1.26,1.14-1.97,1.61
			l-6.8,2.77c-1.27,0.52-1.89,1.95-1.41,3.23c0.48,1.28,1.9,1.94,3.19,1.5l1.11-0.38c-4.28,6.67-11.78,10.92-19.88,10.92
			c-11.72,0-21.77-8.76-23.36-20.37l-2.28-16.6C106.07,91.9,106.77,89.59,108.29,87.85z"/>
		<path id="XMLID_957_" class="st18" d="M164.33,172.33c-0.66,0-1.32,0.27-1.79,0.74c-0.47,0.47-0.74,1.12-0.74,1.79
			c0,0.66,0.27,1.31,0.74,1.78c0.47,0.47,1.12,0.74,1.79,0.74c0.66,0,1.31-0.27,1.78-0.74c0.47-0.47,0.74-1.12,0.74-1.78
			c0-0.67-0.27-1.32-0.74-1.79C165.64,172.6,165,172.33,164.33,172.33z"/>
	</g>
</g>
<g class="st0">
	<path class="st23" d="M188.56,134.45v55.08H61.44V62.42h55.08v8.47H69.92v110.17h110.17v-46.61H188.56z"/>
	<path class="st24" d="M188.56,62.42v35.76c0,1.23-0.51,2.37-1.31,3.18s-1.95,1.31-3.18,1.31c-1.19,0-2.33-0.47-3.18-1.31
		l-8.22-8.22l-34.96,34.96v-14.83h-14.83l34.96-34.96l-8.22-8.22c-0.85-0.85-1.31-1.99-1.31-3.18c0-2.48,2.01-4.49,4.49-4.49H188.56
		z"/>
	<path class="st25" d="M78.39,113.27v59.32h59.32V128.1v-14.83H78.39z"/>
	<path class="st26" d="M95.34,113.27h25.42v16.95h-8.47h-8.47h-8.47V113.27z"/>
	<path class="st8" d="M151.24,124.27l3-3l3,3l-3,3L151.24,124.27z"/>
	<path class="st8" d="M163.22,112.29l3-3l3,3l-3,3L163.22,112.29z"/>
	<path class="st8" d="M157.24,118.3l3-3l3,3l-3,3L157.24,118.3z"/>
	<path class="st8" d="M169.22,106.3l3-3l3,3l-3,3L169.22,106.3z"/>
	<path class="st8" d="M141.68,78.76l3-3l3,3l-3,3L141.68,78.76z"/>
	<path class="st8" d="M123.7,96.73l3-3l3,3l-3,3L123.7,96.73z"/>
	<path class="st8" d="M135.69,84.75l3-3l3,3l-3,3L135.69,84.75z"/>
	<path class="st8" d="M129.69,90.74l3-3l3,3l-3,3L129.69,90.74z"/>
	<path class="st8" d="M127.12,161.99h4.24v4.24h-4.24V161.99z"/>
	<path class="st8" d="M118.64,161.99h4.24v4.24h-4.24V161.99z"/>
	<path class="st8" d="M110.17,161.99h4.24v4.24h-4.24V161.99z"/>
	<path class="st8" d="M110.17,153.52h21.19v4.24h-21.19V153.52z"/>
	<path class="st8" d="M177.96,178.94H72.04V73.01h46.61V60.3H59.32v131.35h131.35v-59.32h-12.71V178.94z M182.2,136.57h4.24v50.85
		H63.56V64.54h50.85v4.24H67.8v114.4h114.4V136.57z"/>
	<path class="st8" d="M152.8,60.3c-3.65,0-6.61,2.97-6.61,6.61c0,1.77,0.69,3.43,1.94,4.68l6.72,6.72L122,111.15H76.27v63.56h63.56
		v-45.73l32.84-32.84l6.72,6.72c1.23,1.23,2.93,1.94,4.68,1.94c3.65,0,6.61-2.97,6.61-6.61V60.3L152.8,60.3z M110.17,119.62v8.47
		h-4.24v-8.47h-4.24v8.47h-4.24v-12.71h21.19v12.71h-4.24v-8.47H110.17z M135.59,170.47H80.51v-55.08h12.71v16.95h29.66v-16.95
		h12.71V170.47z M186.44,98.18c0,1.31-1.07,2.37-2.37,2.37c-0.62,0-1.24-0.25-1.68-0.69l-9.72-9.72l-32.84,32.84v-11.83H128
		l32.84-32.84l-9.72-9.72c-0.45-0.45-0.69-1.04-0.69-1.68c0-1.31,1.07-2.37,2.37-2.37h33.64L186.44,98.18z"/>
</g>
<g class="st0">
	<path class="st27" d="M163.94,111.43c0-21.63-17.54-39.16-39.16-39.15s-39.16,17.54-39.15,39.16c0,13.34,6.8,25.77,18.03,32.96
		c3.62,2.25,5.85,6.19,5.9,10.45v8.79c0,3.6,2.92,6.53,6.53,6.53h17.4c3.6,0,6.53-2.92,6.53-6.53v-8.61
		c0.06-4.36,2.33-8.4,6.03-10.71C157.2,137.11,163.94,124.72,163.94,111.43z"/>
	<path class="st28" d="M113.9,183.22c0,3.6,2.92,6.53,6.53,6.53l0,0h8.7c3.6,0,6.53-2.92,6.53-6.53l0,0v-13.05H113.9V183.22z"/>
	<path class="st29" d="M177.41,88.42l6.84-5.13l-7.83-10.44l-6.84,5.13c-1.92,1.44-4.65,1.05-6.09-0.87
		c-0.69-0.92-0.99-2.08-0.83-3.22l1.21-8.46l-12.92-1.85l-1.21,8.46c-0.34,2.38-2.54,4.03-4.92,3.69c-1.14-0.16-2.17-0.77-2.87-1.7
		l-5.13-6.84l-10.44,7.83l5.13,6.84c1.44,1.92,1.05,4.65-0.87,6.09c-0.92,0.69-2.08,0.99-3.22,0.83l-8.46-1.21l-1.85,12.92
		l8.46,1.21c2.38,0.34,4.03,2.54,3.69,4.92c-0.16,1.14-0.77,2.17-1.7,2.87l-6.84,5.13l7.83,10.44l6.84-5.13
		c1.92-1.44,4.65-1.05,6.09,0.87c0.69,0.92,0.99,2.08,0.83,3.23l-1.22,8.46l12.92,1.85l1.22-8.46c0.34-2.38,2.54-4.03,4.92-3.69
		c1.14,0.16,2.17,0.77,2.87,1.7l5.13,6.84l10.44-7.83l-5.13-6.84c-1.44-1.92-1.05-4.65,0.87-6.09c0.92-0.69,2.08-0.99,3.23-0.83
		l8.46,1.21l1.85-12.92l-8.46-1.21c-2.38-0.34-4.03-2.54-3.69-4.92C175.88,90.14,176.49,89.11,177.41,88.42L177.41,88.42z
		 M152.49,114.18c-8.41,0-15.23-6.82-15.23-15.23s6.82-15.23,15.23-15.23c8.41,0,15.23,6.82,15.23,15.23S160.9,114.18,152.49,114.18
		z"/>
	<path class="st30" d="M103.65,144.4c-1.9-1.23-3.7-2.62-5.36-4.15c-1.51,5.8-7.44,9.29-13.24,7.78s-9.29-7.44-7.78-13.24
		c1.25-4.79,5.58-8.13,10.53-8.13c0.33,0,0.65,0.07,0.97,0.1c-2.06-4.85-3.12-10.06-3.12-15.33h-2.77l-1.5,7.15
		c-0.25,1.18-1.4,1.93-2.58,1.68c-0.28-0.06-0.55-0.17-0.79-0.34L72,115.78l-6.53,6.53l4.13,6.01c0.68,0.99,0.43,2.34-0.56,3.03
		c-0.24,0.16-0.51,0.28-0.79,0.34l-7.14,1.5v8.7l7.15,1.5c1.18,0.25,1.93,1.4,1.68,2.58c-0.06,0.28-0.17,0.55-0.34,0.79l-4.14,6.01
		l6.53,6.53l6.01-4.13c0.99-0.68,2.34-0.43,3.03,0.55c0.16,0.24,0.28,0.51,0.34,0.79l1.5,7.14h8.7l1.5-7.15
		c0.25-1.18,1.4-1.93,2.57-1.68c0.28,0.06,0.55,0.17,0.79,0.34l6.01,4.14l6.83-6.83C108.56,149.13,106.53,146.22,103.65,144.4
		L103.65,144.4z"/>
	<path class="st8" d="M188.17,95.26l-8.46-1.21c-1.19-0.17-2.02-1.27-1.85-2.46c0.08-0.57,0.39-1.09,0.85-1.43l6.84-5.13
		c0.96-0.72,1.16-2.08,0.44-3.05l-7.83-10.44c-0.72-0.96-2.08-1.16-3.05-0.44c0,0,0,0,0,0l-6.84,5.13
		c-0.96,0.73-2.32,0.54-3.05-0.42c-0.35-0.46-0.5-1.05-0.42-1.63l1.21-8.46c0.17-1.19-0.66-2.29-1.84-2.46c0,0,0,0,0,0l-12.91-1.84
		c-1.19-0.17-2.29,0.65-2.46,1.84c0,0,0,0,0,0l-1.21,8.46c-0.17,1.19-1.27,2.02-2.46,1.85c-0.57-0.08-1.09-0.39-1.43-0.85
		l-5.13-6.84c-0.72-0.96-2.08-1.16-3.05-0.44c0,0,0,0,0,0l-6.54,4.91c-2.96-0.31-5.94-0.31-8.9,0
		c-19.37,2.21-34.56,17.66-36.44,37.06c-0.06,0.62-0.08,1.23-0.11,1.84h-0.65c-1.03,0-1.92,0.73-2.13,1.74l-1.5,7.15l-6.02-4.15
		c-0.86-0.6-2.03-0.49-2.77,0.25l-6.53,6.53c-0.74,0.74-0.85,1.91-0.25,2.77l4.13,6.01l-7.15,1.5c-1,0.22-1.71,1.11-1.71,2.13v8.7
		c0,1.03,0.72,1.92,1.73,2.13l7.15,1.5l-4.13,6.01c-0.6,0.86-0.49,2.03,0.25,2.77l6.53,6.53c0.74,0.74,1.91,0.85,2.77,0.25
		l6.01-4.14l1.5,7.15c0.21,1.01,1.1,1.74,2.13,1.74h8.7c1.03,0,1.92-0.72,2.13-1.73l1.5-7.15l6.01,4.13
		c0.86,0.6,2.03,0.49,2.77-0.25l3.38-3.39v6.2c0.01,3.09,1.67,5.95,4.35,7.49v12.09c0,4.81,3.9,8.7,8.7,8.7h8.7
		c4.81,0,8.7-3.9,8.7-8.7v-12.09c2.68-1.54,4.34-4.4,4.35-7.49v-8.61c0.06-3.62,1.95-6.97,5.03-8.88c1.81-1.17,3.52-2.48,5.12-3.92
		l-2.9-3.24c-1.43,1.29-2.97,2.46-4.58,3.5c-4.32,2.71-6.96,7.43-7.02,12.53v8.61c0,2.4-1.95,4.35-4.35,4.35h-17.4
		c-2.4,0-4.35-1.95-4.35-4.35v-8.79c-0.05-5-2.65-9.63-6.9-12.28c-17.24-10.83-22.44-33.59-11.6-50.84
		c6.72-10.7,18.45-17.21,31.09-17.25c-0.03,0.08-0.06,0.16-0.08,0.24c-0.08,0.57,0.07,1.15,0.42,1.61l5.13,6.84
		c0.54,0.7,0.59,1.66,0.13,2.41c-0.44,0.76-1.3,1.17-2.18,1.05l-8.46-1.21c-1.19-0.17-2.29,0.66-2.46,1.84c0,0,0,0,0,0l-1.85,12.92
		c-0.17,1.19,0.66,2.29,1.84,2.46c0,0,0,0,0,0l8.46,1.21c1.19,0.17,2.02,1.27,1.85,2.46c-0.08,0.57-0.39,1.09-0.85,1.43l-6.84,5.13
		c-0.96,0.72-1.16,2.08-0.44,3.05l7.83,10.44c0.72,0.96,2.08,1.16,3.05,0.44l0,0l6.84-5.13c0.96-0.72,2.33-0.52,3.04,0.44
		c0.34,0.46,0.49,1.04,0.41,1.61l-1.21,8.46c-0.17,1.19,0.65,2.29,1.84,2.46c0,0,0,0,0,0l12.92,1.85c0.1,0.01,0.2,0.02,0.31,0.02
		c1.08,0,2-0.79,2.16-1.87l1.21-8.46c0.17-1.19,1.27-2.02,2.46-1.85c0.57,0.08,1.09,0.39,1.43,0.85l5.13,6.84
		c0.72,0.96,2.08,1.16,3.05,0.44l0,0l10.44-7.83c0.96-0.72,1.16-2.08,0.44-3.05l-5.13-6.84c-0.54-0.7-0.59-1.66-0.13-2.41
		c0.44-0.77,1.3-1.19,2.18-1.04l8.46,1.21c1.19,0.17,2.29-0.65,2.46-1.84c0,0,0,0,0,0l1.84-12.92
		C190.19,96.53,189.37,95.43,188.17,95.26C188.18,95.26,188.18,95.26,188.17,95.26L188.17,95.26z M87.3,128.83
		c2,4.31,4.73,8.25,8.08,11.63c-1.62,4.52-6.6,6.86-11.12,5.23c-4.52-1.62-6.86-6.6-5.23-11.12c1.24-3.45,4.52-5.75,8.19-5.75H87.3z
		 M129.13,187.57h-8.7c-2.4,0-4.35-1.95-4.35-4.35v-2.18h17.4v2.18C133.48,185.62,131.53,187.57,129.13,187.57z M133.48,172.34v4.35
		h-17.4v-4.35H133.48z M106.86,151.8l-4.67,4.66l-4.52-3.12c-1.98-1.36-4.69-0.86-6.05,1.11c-0.33,0.47-0.56,1.01-0.68,1.57
		l-1.14,5.43h-5.17l-1.14-5.42c-0.49-2.35-2.8-3.86-5.15-3.36c-0.56,0.12-1.1,0.35-1.57,0.68l-4.52,3.11l-3.96-3.95l3.11-4.52
		c1.36-1.98,0.87-4.69-1.11-6.05c-0.47-0.33-1.01-0.56-1.57-0.68l-5.42-1.14v-5.17l5.42-1.14c2.35-0.5,3.85-2.81,3.35-5.16
		c-0.12-0.56-0.34-1.09-0.67-1.56l-3.12-4.53l3.96-3.95l4.52,3.12c1.98,1.36,4.69,0.86,6.05-1.12c0.33-0.47,0.56-1.01,0.67-1.57
		l0.38-1.81c0.35,2.51,0.93,4.98,1.73,7.38c-7.16,0.85-12.27,7.35-11.42,14.51c0.85,7.16,7.35,12.27,14.51,11.42
		c4.31-0.51,8.08-3.14,10.06-7c1.19,0.97,2.43,1.88,3.72,2.71C104.53,147.53,106.08,149.5,106.86,151.8L106.86,151.8z
		 M184.17,107.87l-6.31-0.9c-3.57-0.51-6.87,1.97-7.38,5.54c-0.24,1.71,0.2,3.45,1.24,4.84l3.82,5.1l-6.96,5.22l-3.82-5.09
		c-2.16-2.88-6.25-3.47-9.14-1.31c-1.38,1.04-2.3,2.58-2.55,4.3l-0.88,6.32l-8.61-1.23l0.9-6.31c0.51-3.57-1.97-6.87-5.54-7.39
		c-1.71-0.25-3.46,0.2-4.84,1.24l-5.1,3.82l-5.22-6.96l5.09-3.82c2.88-2.16,3.47-6.25,1.31-9.14c-1.04-1.38-2.58-2.3-4.3-2.55
		l-6.31-0.9l1.23-8.61l6.31,0.9c3.57,0.51,6.87-1.97,7.39-5.54c0.25-1.71-0.2-3.46-1.24-4.84l-3.84-5.1l6.96-5.22l3.82,5.1
		c2.16,2.88,6.25,3.47,9.14,1.31c1.38-1.04,2.3-2.58,2.55-4.3l0.9-6.31l8.61,1.23l-0.9,6.31c-0.51,3.57,1.97,6.87,5.54,7.38
		c1.71,0.24,3.45-0.2,4.84-1.24l5.1-3.82l5.22,6.96l-5.1,3.82c-2.88,2.16-3.47,6.25-1.31,9.14c1.04,1.38,2.58,2.3,4.3,2.55l6.31,0.9
		L184.17,107.87z"/>
	<path class="st8" d="M152.48,81.55c-9.61,0-17.4,7.79-17.4,17.4s7.79,17.4,17.4,17.4c9.61,0,17.4-7.79,17.4-17.4
		C169.88,89.34,162.09,81.56,152.48,81.55z M152.48,112c-7.21,0-13.05-5.84-13.05-13.05c0-7.21,5.84-13.05,13.05-13.05
		c7.21,0,13.05,5.84,13.05,13.05C165.53,106.16,159.69,111.99,152.48,112z"/>
	<path class="st8" d="M122.6,157.11h4.35v6.53h-4.35V157.11z"/>
	<path class="st8" d="M115.26,135.75c-13.43-5.25-20.06-20.39-14.82-33.81c2.03-5.2,5.68-9.62,10.41-12.59l-2.33-3.68
		c-14.23,8.97-18.5,27.77-9.53,42c3.47,5.51,8.62,9.77,14.69,12.14c5.37,2.06,8.92,7.21,8.92,12.97h4.35
		C126.96,145.22,122.31,138.45,115.26,135.75z"/>
	<path class="st8" d="M166.11,141.88h15.23v4.35h-15.23V141.88z"/>
	<path class="st8" d="M162.54,156.61l2.79-3.34l13.05,10.88l-2.79,3.34L162.54,156.61z"/>
	<path class="st8" d="M153.06,159.29h4.35v15.23h-4.35V159.29z"/>
	<path class="st8" d="M61.16,98.44l17.4-4.35l1.05,4.22l-17.4,4.35L61.16,98.44z"/>
	<path class="st8" d="M64.78,76.22l2.53-3.54l15.23,10.88L80,87.09L64.78,76.22z"/>
	<path class="st8" d="M83.42,61.93l4.22-1.08l4.45,17.4l-4.22,1.08L83.42,61.93z"/>
</g>
</svg>
