<svg height="496pt" viewBox="0 0 496 496" width="496pt" xmlns="http://www.w3.org/2000/svg"><path d="m247.855469 201.425781c.015625-.480469.144531-.9375.144531-1.425781 0-16.566406-10.070312-30.785156-24.425781-36.855469 5.304687-7.71875 8.425781-17.066406 8.425781-27.144531 0-11.480469-4.039062-22-10.761719-30.265625 11.488281-10.253906 18.761719-25.125 18.761719-41.734375 0-30.929688-25.070312-56-56-56s-56 25.070312-56 56c0 2.976562.296875 5.878906.742188 8.726562-12.429688 2.28125-22.71875 10.335938-28.269532 21.25-7.128906-17.570312-24.335937-29.976562-44.472656-29.976562-26.511719 0-48 21.488281-48 48s21.488281 48 48 48c20.136719 0 37.34375-12.40625 44.472656-29.984375 6.605469 12.992187 19.953125 21.984375 35.527344 21.984375.921875 0 1.785156-.207031 2.6875-.273438 5.25 15.128907 17.832031 26.777344 33.511719 30.753907-2.605469 5.3125-4.199219 11.207031-4.199219 17.519531 0 22.089844 17.910156 40 40 40 4.367188 0 8.503906-.871094 12.441406-2.167969 4.34375 6.136719 11.460938 10.167969 19.558594 10.167969 13.257812 0 24-10.742188 24-24 0-10.488281-6.769531-19.3125-16.144531-22.574219zm0 0" fill="#999"/><path d="m223.855469 201.425781c.015625-.480469.144531-.9375.144531-1.425781 0-16.566406-10.070312-30.785156-24.425781-36.855469 5.304687-7.71875 8.425781-17.066406 8.425781-27.144531 0-11.480469-4.039062-22-10.761719-30.265625 11.488281-10.253906 18.761719-25.125 18.761719-41.734375 0-26.808594-18.847656-49.183594-44-54.679688-25.152344 5.496094-44 27.871094-44 54.679688 0 2.976562.296875 5.878906.742188 8.726562-12.429688 2.28125-22.71875 10.335938-28.269532 21.25-2.351562-5.808593-5.886718-10.96875-10.183594-15.382812-5.824218 3.832031-10.625 9.101562-13.816406 15.382812-5.671875-13.976562-17.777344-24.578124-32.617187-28.367187-20.617188 5.382813-35.855469 24.085937-35.855469 46.390625s15.238281 41.007812 35.855469 46.390625c14.839843-3.789063 26.945312-14.390625 32.617187-28.375 3.183594 6.265625 7.96875 11.570313 13.785156 15.410156 4.308594-4.425781 7.855469-9.59375 10.214844-15.410156 6.605469 12.992187 19.953125 21.984375 35.527344 21.984375.921875 0 1.785156-.207031 2.6875-.273438 5.25 15.128907 17.832031 26.777344 33.511719 30.753907-2.605469 5.3125-4.199219 11.207031-4.199219 17.519531 0 17.863281 11.792969 32.816406 27.960938 37.953125.152343-.050781.320312-.074219.480468-.121094.09375.136719.238282.238281.335938.375 3.582031 1.050781 7.292968 1.792969 11.222656 1.792969 4.367188 0 8.503906-.871094 12.441406-2.167969 1.984375 2.800781 4.605469 5.089844 7.574219 6.832031 7.136719-4.160156 11.984375-11.808593 11.984375-20.664062 0-10.488281-6.769531-19.3125-16.144531-22.574219zm0 0" fill="#bab8b9"/><path d="m128 232c0 17.671875-14.328125 32-32 32s-32-14.328125-32-32 14.328125-32 32-32 32 14.328125 32 32zm0 0" fill="#df9363"/><path d="m160 296c0 8.835938-7.164062 16-16 16s-16-7.164062-16-16 7.164062-16 16-16 16 7.164062 16 16zm0 0" fill="#ca5057"/><path d="m113.230469 386.464844 14.769531-18.464844 24 56c0 35.34375-28.65625 64-64 64h-16c-35.34375 0-64-28.65625-64-64l24-56 14.769531 18.464844 33.230469-66.464844zm0 0" fill="#ca5057"/><path d="m113.230469 418.464844-33.230469-66.464844-33.230469 66.464844-14.769531-18.464844-19.886719 46.40625c9.085938 24.273438 32.4375 41.59375 59.886719 41.59375h16c27.449219 0 50.800781-17.320312 59.886719-41.59375l-19.886719-46.40625zm0 0" fill="#df9363"/><path d="m96 440c0 8.835938-7.164062 16-16 16s-16-7.164062-16-16 7.164062-16 16-16 16 7.164062 16 16zm0 0" fill="#ca5057"/><path d="m296 88h192v400h-192zm0 0" fill="#ca5057"/><path d="m296 88h160v400h-160zm0 0" fill="#dc6068"/><path d="m200 280h176v208h-176zm0 0" fill="#5789d6"/><path d="m200 280h136v208h-136zm0 0" fill="#699ce6"/><path d="m376 344h-128v-32h128" fill="#d9d7d8"/><path d="m376 408h-128v-32h128" fill="#d9d7d8"/><g fill="#94cce7"><path d="m328 120h48v32h-48zm0 0"/><path d="m408 120h48v32h-48zm0 0"/><path d="m328 184h48v32h-48zm0 0"/><path d="m408 184h48v32h-48zm0 0"/><path d="m408 248h48v32h-48zm0 0"/><path d="m408 312h48v32h-48zm0 0"/><path d="m408 376h48v32h-48zm0 0"/><path d="m376 280v-32h-48v32"/></g><path d="m488 496h-112v-16h104v-384h-176v184h-16v-192c0-4.414062 3.585938-8 8-8h192c4.414062 0 8 3.585938 8 8v400c0 4.425781-3.585938 8-8 8zm0 0"/><path d="m376 496h-176c-4.414062 0-8-3.574219-8-8v-208c0-4.425781 3.585938-8 8-8h176c4.414062 0 8 3.574219 8 8v208c0 4.425781-3.585938 8-8 8zm-168-16h160v-192h-160zm0 0"/><path d="m376 352h-128c-4.414062 0-8-3.574219-8-8v-32c0-4.425781 3.585938-8 8-8h128v16h-120v16h120zm0 0"/><path d="m376 416h-128c-4.414062 0-8-3.574219-8-8v-32c0-4.425781 3.585938-8 8-8h128v16h-120v16h120zm0 0"/><path d="m376 160h-48c-4.414062 0-8-3.585938-8-8v-32c0-4.414062 3.585938-8 8-8h48c4.414062 0 8 3.585938 8 8v32c0 4.414062-3.585938 8-8 8zm-40-16h32v-16h-32zm0 0"/><path d="m456 160h-48c-4.414062 0-8-3.585938-8-8v-32c0-4.414062 3.585938-8 8-8h48c4.414062 0 8 3.585938 8 8v32c0 4.414062-3.585938 8-8 8zm-40-16h32v-16h-32zm0 0"/><path d="m376 224h-48c-4.414062 0-8-3.585938-8-8v-32c0-4.414062 3.585938-8 8-8h48c4.414062 0 8 3.585938 8 8v32c0 4.414062-3.585938 8-8 8zm-40-16h32v-16h-32zm0 0"/><path d="m456 224h-48c-4.414062 0-8-3.585938-8-8v-32c0-4.414062 3.585938-8 8-8h48c4.414062 0 8 3.585938 8 8v32c0 4.414062-3.585938 8-8 8zm-40-16h32v-16h-32zm0 0"/><path d="m456 288h-48c-4.414062 0-8-3.574219-8-8v-32c0-4.414062 3.585938-8 8-8h48c4.414062 0 8 3.585938 8 8v32c0 4.425781-3.585938 8-8 8zm-40-16h32v-16h-32zm0 0"/><path d="m456 352h-48c-4.414062 0-8-3.574219-8-8v-32c0-4.425781 3.585938-8 8-8h48c4.414062 0 8 3.574219 8 8v32c0 4.425781-3.585938 8-8 8zm-40-16h32v-16h-32zm0 0"/><path d="m456 416h-48c-4.414062 0-8-3.574219-8-8v-32c0-4.425781 3.585938-8 8-8h48c4.414062 0 8 3.574219 8 8v32c0 4.425781-3.585938 8-8 8zm-40-16h32v-16h-32zm0 0"/><path d="m384 280h-16v-24h-32v24h-16v-32c0-4.414062 3.585938-8 8-8h48c4.414062 0 8 3.585938 8 8zm0 0"/><path d="m240 256c-8.375 0-16.367188-3.335938-22.304688-9.113281-3.328124.746093-6.527343 1.113281-9.695312 1.113281-26.472656 0-48-21.527344-48-48 0-4.265625.59375-8.488281 1.777344-12.640625-12.464844-5.375-22.546875-15.085937-28.363282-27.429687-12.382812-.664063-23.804687-6.097657-32.132812-14.96875-10.371094 14.3125-27.015625 23.039062-45.28125 23.039062-30.878906 0-56-25.121094-56-56s25.121094-56 56-56c18.28125 0 34.945312 8.742188 45.304688 23.070312 5.199218-5.496093 11.65625-9.726562 18.765624-12.269531-.046874-.953125-.070312-1.878906-.070312-2.800781 0-35.289062 28.710938-64 64-64s64 28.710938 64 64c0 15.761719-5.878906 30.9375-16.335938 42.625 5.40625 8.78125 8.335938 18.992188 8.335938 29.375 0 8.382812-1.855469 16.550781-5.414062 24.015625 12.230468 8.121094 20.140624 21.457031 21.269531 36.296875 9.847656 5.625 16.144531 16.136719 16.144531 27.6875 0 17.648438-14.351562 32-32 32zm-19.558594-26.167969c2.542969 0 5 1.214844 6.527344 3.375 3.015625 4.257813 7.878906 6.792969 13.03125 6.792969 8.824219 0 16-7.175781 16-16 0-6.734375-4.335938-12.777344-10.777344-15.015625-3.328125-1.160156-5.503906-4.351563-5.359375-7.878906.007813-.273438.105469-1.203125.144531-1.472657-.007812-12.519531-7.679687-24.097656-19.550781-29.121093-2.210937-.9375-3.890625-2.816407-4.5625-5.128907-.671875-2.304687-.269531-4.789062 1.089844-6.773437 4.582031-6.679687 7.015625-14.496094 7.015625-22.609375 0-9.289062-3.097656-18-8.96875-25.207031-2.695312-3.320313-2.3125-8.167969.878906-11.015625 10.226563-9.128906 16.089844-22.167969 16.089844-35.777344 0-26.472656-21.527344-48-48-48s-48 21.527344-48 48c0 2.273438.207031 4.65625.648438 7.496094.671874 4.28125-2.191407 8.320312-6.457032 9.105468-9.777344 1.796876-18.007812 8-22.582031 17.007813-1.425781 2.789063-4.410156 4.40625-7.472656 4.367187-3.128907-.136718-5.898438-2.082031-7.074219-4.984374-6.160156-15.183594-20.710938-24.992188-37.0625-24.992188-22.054688 0-40 17.945312-40 40s17.945312 40 40 40c16.351562 0 30.902344-9.808594 37.054688-24.992188 1.175781-2.902343 3.945312-4.847656 7.074218-4.984374 3.0625-.144532 6.046875 1.578124 7.472656 4.367187 5.527344 10.867187 16.40625 17.609375 28.398438 17.609375 1.03125-.144531 1.601562-.214844 2.175781-.257812 3.578125-.207032 6.886719 1.960937 8.070313 5.363281 4.417968 12.734375 14.859375 22.308593 27.921875 25.621093 2.335937.59375 4.289062 2.210938 5.296875 4.402344 1.007812 2.191406.984375 4.71875-.082032 6.878906-2.246093 4.566407-3.382812 9.273438-3.382812 13.992188 0 17.648438 14.351562 32 32 32 3.0625 0 6.320312-.574219 9.9375-1.769531.824219-.269531 1.664062-.398438 2.503906-.398438zm0 0"/><path d="m88 496h-16c-39.695312 0-72-32.296875-72-72 0-1.089844.214844-2.160156.648438-3.152344l24-56c1.105468-2.582031 3.488281-4.398437 6.28125-4.785156 2.796874-.367188 5.566406.746094 7.316406 2.929688l32 40-12.492188 10-23.664062-29.578126-18.074219 42.171876c.847656 30.148437 25.640625 54.414062 55.984375 54.414062h16c30.34375 0 55.136719-24.265625 55.976562-54.40625l-18.074218-42.167969-23.664063 29.574219-12.496093-10 32-40c1.753906-2.183594 4.546874-3.296875 7.320312-2.929688 2.792969.386719 5.167969 2.195313 6.28125 4.785157l24 56c.441406.984375.65625 2.054687.65625 3.144531 0 39.703125-32.304688 72-72 72zm0 0"/><path d="m104.839844 387.574219-24.839844-49.6875-24.839844 49.6875-14.3125-7.160157 32-64c2.710938-5.421874 11.601563-5.421874 14.3125 0l32 64zm0 0"/><path d="m80 464c-13.230469 0-24-10.769531-24-24s10.769531-24 24-24 24 10.769531 24 24-10.769531 24-24 24zm0-32c-4.40625 0-8 3.585938-8 8s3.59375 8 8 8 8-3.585938 8-8-3.59375-8-8-8zm0 0"/><path d="m144 320c-13.230469 0-24-10.769531-24-24s10.769531-24 24-24 24 10.769531 24 24-10.769531 24-24 24zm0-32c-4.40625 0-8 3.585938-8 8s3.59375 8 8 8 8-3.585938 8-8-3.59375-8-8-8zm0 0"/><path d="m96 272c-22.054688 0-40-17.945312-40-40s17.945312-40 40-40 40 17.945312 40 40-17.945312 40-40 40zm0-64c-13.230469 0-24 10.769531-24 24s10.769531 24 24 24 24-10.769531 24-24-10.769531-24-24-24zm0 0"/></svg>